<svg width="224" height="224" viewBox="0 0 224 224" fill="none" xmlns="http://www.w3.org/2000/svg">
<g clip-path="url(#clip0_29_230)">
<path d="M84.1837 121.967C90.9846 109.993 103.957 100.799 117.69 101.684C107.561 112.71 101.654 126.966 101.015 141.931C100.789 147.703 101.139 154.147 97.3098 158.469C94.9273 161.158 91.2855 162.461 87.7048 162.734C84.124 163.007 80.544 162.359 77.011 161.715L76.154 161.978C75.8277 148.208 77.3828 133.941 84.1837 121.967Z" fill="#F0F0F0"/>
<path d="M117.711 101.973C107.555 106.866 98.8962 115.038 93.5806 125.004C92.4313 127.159 91.4529 129.445 91.0261 131.862C90.5991 134.28 90.8973 136.581 91.7225 138.878C92.4768 140.977 93.4914 143.038 93.7227 145.284C93.9665 147.652 93.096 149.866 91.5291 151.623C89.6119 153.773 87.0372 155.106 84.4742 156.321C81.6284 157.67 78.6511 159.027 76.6355 161.545C76.3913 161.85 75.9325 161.453 76.1764 161.148C79.6832 156.767 85.6861 155.943 89.8487 152.414C91.7911 150.767 93.2493 148.524 93.1573 145.896C93.0768 143.598 92.0324 141.473 91.2503 139.353C90.429 137.128 90.0194 134.891 90.3139 132.518C90.6152 130.092 91.5064 127.763 92.5956 125.588C95.0519 120.684 98.4134 116.181 102.264 112.289C106.69 107.815 111.848 104.132 117.514 101.398C117.865 101.229 118.059 101.805 117.711 101.973Z" fill="white"/>
<path d="M95.1377 121.673C93.5808 120.534 92.4794 118.878 92.0299 117.001C91.5805 115.124 91.8123 113.148 92.6841 111.426C92.8617 111.078 93.41 111.338 93.2322 111.686C92.4174 113.288 92.2016 115.129 92.6237 116.876C93.0458 118.623 94.078 120.161 95.534 121.214C95.8501 121.443 95.452 121.901 95.1377 121.673Z" fill="white"/>
<path d="M91.2 137.864C95.101 137.293 98.6439 135.272 101.122 132.203C101.367 131.899 101.826 132.296 101.581 132.6C98.9964 135.789 95.3052 137.885 91.2444 138.469C90.8573 138.525 90.815 137.919 91.2 137.864V137.864Z" fill="white"/>
<path d="M106.99 108.562C107.5 109.128 108.143 109.559 108.861 109.815C109.579 110.071 110.35 110.145 111.103 110.03C111.489 109.969 111.531 110.575 111.147 110.635C110.314 110.759 109.464 110.676 108.67 110.395C107.876 110.114 107.163 109.642 106.593 109.021C106.535 108.967 106.499 108.893 106.493 108.814C106.487 108.734 106.512 108.655 106.562 108.593C106.615 108.533 106.689 108.495 106.769 108.49C106.849 108.484 106.928 108.51 106.99 108.562Z" fill="white"/>
<path d="M145.014 139.458C144.774 139.503 144.534 139.548 144.292 139.597C141.067 140.212 137.898 141.089 134.815 142.219C134.576 142.302 134.334 142.39 134.097 142.481C126.699 145.281 119.885 149.431 114.001 154.721C111.661 156.828 109.485 159.111 107.492 161.548C104.739 164.915 102.021 168.784 98.4238 170.979C98.051 171.212 97.6642 171.422 97.2655 171.608L76.5414 163.004C76.5041 162.961 76.4646 162.922 76.4271 162.879L75.584 162.573C75.678 162.44 75.7784 162.305 75.8725 162.172C75.9267 162.094 75.9855 162.019 76.0398 161.942C76.0774 161.891 76.1153 161.84 76.1463 161.792C76.1588 161.775 76.1714 161.758 76.182 161.745C76.213 161.697 76.2469 161.656 76.276 161.613C76.8351 160.852 77.4005 160.094 77.9722 159.338C77.9741 159.333 77.9741 159.333 77.9807 159.331C82.3515 153.585 87.2399 148.154 92.7964 143.639C92.9637 143.503 93.1326 143.362 93.3093 143.23C95.8252 141.209 98.502 139.396 101.313 137.811C102.855 136.948 104.44 136.164 106.061 135.462C110.253 133.654 114.703 132.518 119.249 132.095C128.309 131.253 137.538 133.321 144.488 139.018C144.665 139.164 144.839 139.308 145.014 139.458Z" fill="#F0F0F0"/>
<path d="M144.859 139.703C133.807 137.49 121.977 138.797 111.738 143.551C109.524 144.579 107.368 145.814 105.573 147.487C103.778 149.16 102.632 151.178 101.909 153.509C101.248 155.64 100.819 157.896 99.6524 159.829C98.4227 161.867 96.3958 163.11 94.0877 163.569C91.2636 164.13 88.4065 163.642 85.629 163.068C82.5451 162.431 79.352 161.719 76.2278 162.516C75.8493 162.612 75.7219 162.018 76.0998 161.922C81.5355 160.537 86.8238 163.497 92.2706 163.187C94.8121 163.043 97.3256 162.131 98.8329 159.977C100.151 158.094 100.596 155.767 101.246 153.604C101.929 151.332 102.947 149.299 104.61 147.582C106.31 145.826 108.423 144.504 110.6 143.424C115.512 140.988 120.904 139.419 126.32 138.631C132.545 137.726 138.879 137.893 145.047 139.126C145.429 139.202 145.238 139.779 144.859 139.703V139.703Z" fill="white"/>
<path d="M114.985 141.83C114.427 139.982 114.544 137.996 115.314 136.226C116.085 134.457 117.458 133.019 119.19 132.169C119.541 131.999 119.823 132.536 119.471 132.707C117.857 133.495 116.577 134.835 115.863 136.484C115.15 138.134 115.048 139.984 115.578 141.702C115.692 142.075 115.099 142.201 114.985 141.83Z" fill="white"/>
<path d="M102.102 152.384C105.56 154.279 109.604 154.801 113.429 153.844C113.808 153.749 113.935 154.342 113.557 154.437C109.575 155.425 105.367 154.875 101.773 152.894C101.43 152.705 101.761 152.196 102.102 152.384Z" fill="white"/>
<path d="M132.335 138.503C132.402 139.263 132.656 139.994 133.075 140.632C133.495 141.269 134.065 141.792 134.736 142.154C135.081 142.338 134.75 142.847 134.408 142.664C133.668 142.261 133.039 141.682 132.574 140.979C132.109 140.276 131.824 139.47 131.742 138.631C131.728 138.553 131.744 138.472 131.787 138.405C131.83 138.338 131.897 138.29 131.974 138.27C132.053 138.254 132.135 138.269 132.202 138.312C132.27 138.356 132.318 138.424 132.335 138.503Z" fill="white"/>
<path d="M105.536 153.653C102.634 139.607 99.006 134.924 99.006 134.924L97.6201 133.849L95.9533 132.553L95.9614 132.386L95.5661 132.252L95.4732 132.18L95.321 132.063L95.2966 132.089L95.2449 132.142L87.7027 129.577L78.1342 126.323L73.7033 120.559C72.9817 119.62 72.0526 118.862 70.989 118.342C69.9253 117.823 68.756 117.557 67.5726 117.566L53.4219 117.671C51.5086 117.685 49.6697 118.415 48.2669 119.718L38.9659 128.353L24.4731 135.28L24.4486 135.256L24.2964 135.365L22.0572 136.436L22.1496 136.918L20.7636 137.919C20.7636 137.919 17.1357 142.276 14.2333 155.346C13.495 158.671 13.1315 165.805 13.0004 174.595C12.9938 175.04 13.0756 175.481 13.241 175.894C13.4064 176.307 13.6522 176.683 13.964 176.999C14.2758 177.316 14.6475 177.568 15.0573 177.74C15.4671 177.912 15.907 178 16.3514 178H93.7602V178H103.422C103.866 178 104.305 177.911 104.715 177.74C105.125 177.568 105.496 177.317 105.808 177C106.119 176.684 106.365 176.309 106.531 175.896C106.697 175.484 106.779 175.043 106.773 174.599C106.645 165.033 106.281 157.259 105.536 153.653Z" fill="url(#paint0_radial_29_230)"/>
<path d="M115.468 58.249C112.457 58.249 109.568 59.4465 107.439 61.5779C105.309 63.7094 104.113 66.6002 104.113 69.6145C104.113 72.6289 105.309 75.5197 107.439 77.6512C109.568 79.7826 112.457 80.9801 115.468 80.9801H200.094C203.105 80.9801 205.993 79.7826 208.123 77.6512C210.253 75.5197 211.449 72.6289 211.449 69.6145C211.449 66.6002 210.253 63.7094 208.123 61.5779C205.993 59.4465 203.105 58.249 200.094 58.249H115.468Z" fill="#E5E5E5"/>
<path d="M115.468 60.5493C113.066 60.5493 110.762 61.5044 109.064 63.2045C107.365 64.9046 106.411 67.2104 106.411 69.6147C106.411 72.019 107.365 74.3248 109.064 76.0249C110.762 77.7249 113.066 78.68 115.468 78.68H200.093C202.496 78.68 204.799 77.7249 206.498 76.0249C208.197 74.3248 209.151 72.019 209.151 69.6147C209.151 67.2104 208.197 64.9046 206.498 63.2045C204.799 61.5044 202.496 60.5493 200.093 60.5493H115.468Z" fill="white"/>
<path d="M62.7194 112.245C72.9581 112.245 81.2582 103.938 81.2582 93.69C81.2582 83.4422 72.9581 75.1348 62.7194 75.1348C52.4808 75.1348 44.1807 83.4422 44.1807 93.69C44.1807 103.938 52.4808 112.245 62.7194 112.245Z" fill="#F8ABB6"/>
<path d="M57.9769 111.336C57.8977 111.162 57.8188 110.987 57.74 110.811C57.7703 110.812 57.8004 110.816 57.8307 110.817L57.9769 111.336Z" fill="#2F2E41"/>
<path d="M43.6652 75.9783C44.6028 75.2296 45.6987 74.5408 46.8975 74.5795C48.0963 74.6182 49.3119 75.7019 49.0636 76.8764C51.2655 72.9742 54.7703 69.9729 58.9629 68.3995C63.1554 66.826 67.7677 66.7808 71.9902 68.2719C74.9697 69.324 77.8915 71.4289 78.576 74.5161C78.7517 75.3086 78.7894 76.1775 79.2838 76.8211C79.9071 77.6324 81.0997 77.816 82.0818 77.5305C82.0916 77.5277 82.1014 77.5248 82.1112 77.5219C82.2771 77.4652 82.4562 77.4596 82.6253 77.5059C82.7944 77.5521 82.9457 77.6481 83.0597 77.7814C83.1737 77.9147 83.2451 78.0792 83.2647 78.2536C83.2843 78.4279 83.2512 78.6042 83.1696 78.7595L82.3265 80.3331C83.3893 80.5702 84.4935 80.5467 85.5452 80.2646C85.7199 80.2188 85.9045 80.2281 86.0737 80.2914C86.2428 80.3547 86.3883 80.4689 86.4901 80.6182C86.5919 80.7675 86.6451 80.9447 86.6423 81.1254C86.6395 81.3062 86.5809 81.4817 86.4745 81.6278C83.6947 85.4477 79.0505 87.9144 74.3112 87.8854C70.9428 87.8649 67.5397 86.703 64.2614 87.4783C62.9932 87.7782 61.8082 88.3585 60.7933 89.1766C59.7784 89.9947 58.9593 91.0299 58.3962 92.2061C57.8332 93.3824 57.5404 94.6699 57.5393 95.9742C57.5382 97.2784 57.8289 98.5664 58.39 99.7436C57.3829 98.6411 55.4361 98.9021 54.4059 99.9831C53.3758 101.064 53.1091 102.678 53.2129 104.168C53.3717 106.447 54.2639 108.595 55.2045 110.685C47.3183 110.437 39.8593 104.9 37.3486 97.4109C34.8273 89.8906 37.4697 80.925 43.6652 75.9783Z" fill="#2F2E41"/>
<path opacity="0.2" d="M31.2469 149.413L36.4467 177.728L39.5666 178L31.2469 149.413Z" fill="black"/>
<path opacity="0.2" d="M88.5228 147.277L83.3231 177.708L80.2031 178L88.5228 147.277Z" fill="black"/>
<path d="M48.1 66.4489C47.1031 66.8656 46.0628 66.409 45.6265 65.3632C45.1835 64.3015 45.5973 63.2237 46.6102 62.8003C47.6232 62.3769 48.645 62.8347 49.0951 63.9136C49.5385 64.9762 49.1293 66.0188 48.1 66.4489ZM46.1903 60.7105L45.3976 61.0418C45.1995 61.1236 44.978 61.128 44.7769 61.0541C44.5758 60.9803 44.4097 60.8336 44.3115 60.6431L44.2723 60.5663C43.4193 59.0267 43.3216 57.1555 43.9835 55.0077C44.5967 53.0809 44.8513 51.7259 44.3392 50.4983C43.747 49.0789 42.4826 48.6343 40.8701 49.2784C40.2447 49.5398 40.0457 49.5356 39.5536 50.0242C39.4465 50.1318 39.3189 50.2167 39.1784 50.2739C39.0378 50.3311 38.8872 50.3593 38.7355 50.357C38.5889 50.3552 38.4441 50.324 38.3098 50.265C38.1755 50.2061 38.0544 50.1207 37.9538 50.0139C37.7599 49.8081 37.6513 49.5364 37.6499 49.2535C37.6485 48.9707 37.7543 48.6979 37.9461 48.4902C38.7733 47.6235 39.7711 46.9378 40.8764 46.4764C44.3408 45.0285 46.0849 47.1661 46.883 49.0791C47.6636 50.9503 47.2245 52.6864 46.5189 54.9348C45.9277 56.8031 45.9621 58.1875 46.6337 59.564C46.6822 59.6681 46.7092 59.7809 46.7131 59.8956C46.7169 60.0104 46.6975 60.1247 46.6561 60.2318C46.6147 60.3389 46.5521 60.4365 46.472 60.5188C46.392 60.601 46.2961 60.6662 46.1903 60.7105L46.1903 60.7105Z" fill="#BEAE72"/>
<path d="M134.161 75.035H117.324C117.27 75.0353 117.217 75.0251 117.168 75.0049C117.118 74.9846 117.073 74.9548 117.035 74.9171C116.997 74.8793 116.967 74.8345 116.946 74.785C116.926 74.7356 116.915 74.6826 116.915 74.6291C116.915 74.5755 116.926 74.5225 116.946 74.4731C116.967 74.4237 116.997 74.3788 117.035 74.3411C117.073 74.3033 117.118 74.2735 117.168 74.2533C117.217 74.233 117.27 74.2228 117.324 74.2232H134.161C134.268 74.2239 134.37 74.267 134.446 74.343C134.521 74.4191 134.564 74.5219 134.564 74.6291C134.564 74.7362 134.521 74.8391 134.446 74.9151C134.37 74.9912 134.268 75.0342 134.161 75.035Z" fill="#9095A5"/>
<path d="M155.52 75.1707H138.683C138.629 75.1711 138.576 75.1609 138.527 75.1406C138.477 75.1204 138.432 75.0905 138.394 75.0528C138.356 75.0151 138.326 74.9702 138.306 74.9208C138.285 74.8714 138.274 74.8183 138.274 74.7648C138.274 74.7113 138.285 74.6583 138.306 74.6088C138.326 74.5594 138.356 74.5145 138.394 74.4768C138.432 74.4391 138.477 74.4092 138.527 74.389C138.576 74.3688 138.629 74.3585 138.683 74.3589H155.52C155.574 74.3585 155.627 74.3688 155.676 74.389C155.726 74.4092 155.771 74.4391 155.809 74.4768C155.847 74.5145 155.877 74.5594 155.897 74.6088C155.918 74.6583 155.928 74.7113 155.928 74.7648C155.928 74.8183 155.918 74.8714 155.897 74.9208C155.877 74.9702 155.847 75.0151 155.809 75.0528C155.771 75.0905 155.726 75.1204 155.676 75.1406C155.627 75.1609 155.574 75.1711 155.52 75.1707Z" fill="#9095A5"/>
<path d="M176.879 75.306H160.042C159.935 75.3052 159.832 75.2622 159.757 75.1861C159.681 75.1101 159.639 75.0072 159.639 74.9001C159.639 74.7929 159.681 74.6901 159.757 74.614C159.832 74.538 159.935 74.4949 160.042 74.4942H176.879C176.932 74.4938 176.986 74.504 177.035 74.5243C177.085 74.5445 177.13 74.5743 177.168 74.6121C177.206 74.6498 177.236 74.6947 177.256 74.7441C177.277 74.7935 177.287 74.8465 177.287 74.9001C177.287 74.9536 177.277 75.0066 177.256 75.056C177.236 75.1055 177.206 75.1503 177.168 75.1881C177.13 75.2258 177.085 75.2556 177.035 75.2759C176.986 75.2961 176.932 75.3063 176.879 75.306H176.879Z" fill="#9095A5"/>
<path d="M198.238 75.4412H181.401C181.294 75.4405 181.191 75.3974 181.116 75.3214C181.04 75.2453 180.998 75.1425 180.998 75.0353C180.998 74.9281 181.04 74.8253 181.116 74.7493C181.191 74.6732 181.294 74.6301 181.401 74.6294H198.238C198.345 74.6301 198.448 74.6732 198.523 74.7493C198.599 74.8253 198.641 74.9281 198.641 75.0353C198.641 75.1425 198.599 75.2453 198.523 75.3214C198.448 75.3974 198.345 75.4405 198.238 75.4412Z" fill="#9095A5"/>
<path d="M125.705 71.2994C127.433 71.2994 128.834 69.8971 128.834 68.1673C128.834 66.4374 127.433 65.0352 125.705 65.0352C123.977 65.0352 122.576 66.4374 122.576 68.1673C122.576 69.8971 123.977 71.2994 125.705 71.2994Z" fill="#BEAE72"/>
<path d="M147.193 71.2994C148.922 71.2994 150.323 69.8971 150.323 68.1673C150.323 66.4374 148.922 65.0352 147.193 65.0352C145.465 65.0352 144.064 66.4374 144.064 68.1673C144.064 69.8971 145.465 71.2994 147.193 71.2994Z" fill="#BEAE72"/>
<path d="M168.681 71.2994C170.41 71.2994 171.811 69.8971 171.811 68.1673C171.811 66.4374 170.41 65.0352 168.681 65.0352C166.953 65.0352 165.552 66.4374 165.552 68.1673C165.552 69.8971 166.953 71.2994 168.681 71.2994Z" fill="#BEAE72"/>
<path d="M190.169 71.2994C191.898 71.2994 193.299 69.8971 193.299 68.1673C193.299 66.4374 191.898 65.0352 190.169 65.0352C188.441 65.0352 187.04 66.4374 187.04 68.1673C187.04 69.8971 188.441 71.2994 190.169 71.2994Z" fill="#BEAE72"/>
</g>
<defs>
<radialGradient id="paint0_radial_29_230" cx="0" cy="0" r="1" gradientUnits="userSpaceOnUse" gradientTransform="translate(48.0204 130.857) rotate(37.7676) scale(63.0445 97.8232)">
<stop stop-color="#EE2E53"/>
<stop offset="0.0001" stop-color="#FD476A"/>
<stop offset="1" stop-color="#ED1942"/>
</radialGradient>
<clipPath id="clip0_29_230">
<rect width="198.449" height="132" fill="white" transform="translate(13 46)"/>
</clipPath>
</defs>
</svg>
