<svg width="56" height="56" viewBox="0 0 56 56" fill="none" xmlns="http://www.w3.org/2000/svg">
<circle opacity="0.05" cx="28" cy="28" r="28" fill="#9095A5"/>
<g clip-path="url(#clip0_4_6003)">
<path d="M43.618 28.3683C43.618 27.2806 43.5298 26.1871 43.3417 25.1171H28.25V31.2784H36.8923C36.5337 33.2656 35.3814 35.0234 33.6941 36.1405V40.1383H38.85C41.8778 37.3516 43.618 33.2362 43.618 28.3683Z" fill="#4285F4"/>
<path d="M28.25 44.0011C32.5653 44.0011 36.2045 42.5843 38.8559 40.1385L33.7 36.1408C32.2655 37.1167 30.4135 37.6693 28.2559 37.6693C24.0817 37.6693 20.5425 34.8532 19.2726 31.0671H13.952V35.1883C16.6682 40.5912 22.2004 44.0011 28.25 44.0011Z" fill="#34A853"/>
<path d="M19.2668 31.0672C18.5966 29.0801 18.5966 26.9283 19.2668 24.9412V20.8199H13.9521C11.6828 25.341 11.6828 30.6674 13.9521 35.1885L19.2668 31.0672Z" fill="#FBBC04"/>
<path d="M28.25 18.3329C30.5311 18.2976 32.7358 19.156 34.3878 20.7316L38.9559 16.1635C36.0634 13.4473 32.2243 11.954 28.25 12.0011C22.2004 12.0011 16.6682 15.411 13.952 20.8197L19.2667 24.941C20.5308 21.149 24.0759 18.3329 28.25 18.3329Z" fill="#EA4335"/>
</g>
<defs>
<clipPath id="clip0_4_6003">
<rect width="32" height="32" fill="white" transform="translate(12 12)"/>
</clipPath>
</defs>
</svg>
