<?xml version="1.0" encoding="UTF-8"?><svg id="Layer_1" xmlns="http://www.w3.org/2000/svg" viewBox="0 0 1272.5 347.04"><defs><style>.cls-1{fill:#00ffa0;}.cls-2{fill:#f02d50;}.cls-3{fill:#beaf73;}</style></defs><path class="cls-2" d="m1086.91,238.48h2.61c37.86,0,75.72-.01,113.58,0,15.96,0,29.26,10.75,32.49,26.19,4.1,19.6-11.46,38.71-31.52,38.71-65.59,0-131.18,0-196.77,0-15.4,0-29.45-12.22-31.52-27.42-1.52-11.2,1.68-20.73,9.78-28.78,45.81-45.56,91.55-91.18,137.32-136.78.51-.5.99-1.03,1.82-1.9h-2.68c-37.99,0-75.99,0-113.98,0-16.73,0-31.02-12.87-32.55-29.31-1.55-16.71,9.93-31.96,26.47-35.09,2.08-.39,4.24-.51,6.36-.51,64.99-.03,129.98-.03,194.97-.02,20.09,0,35.06,16.98,32.61,36.84-.92,7.49-4.19,13.72-9.51,19.01-29.94,29.81-59.86,59.63-89.79,89.45-16.12,16.06-32.24,32.12-48.36,48.18-.33.33-.63.67-1.32,1.4Z"/><path class="cls-3" d="m1086.91,238.48h2.61c37.86,0,75.72-.01,113.58,0,15.96,0,29.26,10.75,32.49,26.19,4.1,19.6-11.46,38.71-31.52,38.71-65.59,0-131.18,0-196.77,0-15.4,0-29.45-12.22-31.52-27.42-1.52-11.2,1.68-20.73,9.78-28.78,45.81-45.56,91.55-91.18,137.32-136.78.51-.5.99-1.03,1.82-1.9h-2.68c-37.99,0-75.99,0-113.98,0-16.73,0-31.02-12.87-32.55-29.31-1.55-16.71,9.93-31.96,26.47-35.09,2.08-.39,4.24-.51,6.36-.51,64.99-.03,129.98-.03,194.97-.02,20.09,0,35.06,16.98,32.61,36.84-.92,7.49-4.19,13.72-9.51,19.01-29.94,29.81-59.86,59.63-89.79,89.45-16.12,16.06-32.24,32.12-48.36,48.18-.33.33-.63.67-1.32,1.4Zm-74.29,0c1.15,0,1.81,0,2.48,0,16.93,0,33.86-.02,50.79.03,1.52,0,2.57-.43,3.65-1.5,42.39-42.29,84.8-84.55,127.22-126.81.45-.44.86-.92,1.49-1.6-.7-.04-1.08-.07-1.46-.07-17.46,0-34.92-.02-52.39.06-.96,0-2.12.67-2.84,1.38-42.45,42.23-84.86,84.49-127.27,126.76-.46.46-.89.94-1.66,1.76Zm22.24,51.92h142.49c-8.43-13-8.55-25.86-.08-38.79-.63-.04-1.02-.08-1.41-.08-33.51,0-67.03-.01-100.54.04-.92,0-2.07.51-2.73,1.16-12.15,12.02-24.25,24.1-36.35,36.16-.41.41-.78.85-1.37,1.51Zm-.48-194.99c.46.05.72.1.98.1,33.71,0,67.42.01,101.13-.04.81,0,1.81-.48,2.39-1.06,12.24-12.12,24.43-24.29,36.62-36.45.34-.34.61-.74,1-1.23h-142.07c8.33,12.93,8.21,25.71-.05,38.68Zm-6.89,175.7c.06-10.98-8.36-19.52-19.31-19.58-11.04-.07-19.77,8.44-19.84,19.34-.07,10.88,8.64,19.62,19.59,19.65,10.88.03,19.5-8.52,19.55-19.41Zm-19.42-214.51c-11-.04-19.76,8.61-19.72,19.47.04,10.89,8.61,19.44,19.51,19.47,11.05.02,19.56-8.33,19.63-19.26.07-11.1-8.35-19.63-19.42-19.67Zm175.96,214.32c-.05,10.88,8.45,19.47,19.39,19.6,10.95.12,19.68-8.5,19.72-19.45.03-10.95-8.42-19.47-19.37-19.53-11.1-.06-19.68,8.37-19.73,19.39Zm19.45-175.4c11.13.02,19.66-8.41,19.65-19.44,0-10.94-8.45-19.42-19.43-19.48-11.05-.06-19.65,8.44-19.67,19.45-.02,10.92,8.49,19.44,19.45,19.46Zm-46.63-.12h19.9c-1.98-4.83-3.97-9.67-5.83-14.19-4.45,4.49-9.28,9.36-14.07,14.19Zm-116.24,169.78c4.28-4.23,8.97-8.87,13.64-13.49h-19.36c1.96,4.62,3.93,9.25,5.72,13.49Z"/><path class="cls-2" d="m166.85,127.75c1.2-1.35,2.12-2.49,3.15-3.52,23.69-23.63,47.39-47.26,71.11-70.86,11.91-11.85,30.04-13.15,43.11-3.16,15.86,12.12,17.58,34.7,3.49,48.81-28.86,28.91-57.83,57.7-86.79,86.5-1.13,1.12-1.57,2.24-1.57,3.83.05,26.83.01,53.66.05,80.48.01,7.89-1.98,15.09-7.11,21.23-8.79,10.53-20.09,14.64-33.36,11.37-12.82-3.16-20.83-11.79-24.01-24.6-.63-2.54-.65-5.27-.66-7.91-.05-26.89-.04-53.79,0-80.68,0-1.53-.48-2.57-1.55-3.63-28.87-28.71-57.71-57.45-86.54-86.19-9.09-9.07-11.94-20.02-8.52-32.18,3.3-11.72,11.28-19.52,23.13-22.56,11.95-3.06,22.68-.21,31.55,8.61,24.18,24.08,48.35,48.17,72.53,72.26.56.56,1.07,1.18,1.99,2.19Z"/><path class="cls-3" d="m166.85,127.75c1.2-1.35,2.12-2.49,3.15-3.52,23.69-23.63,47.39-47.26,71.11-70.86,11.91-11.85,30.04-13.15,43.11-3.16,15.86,12.12,17.58,34.7,3.49,48.81-28.86,28.91-57.83,57.7-86.79,86.5-1.13,1.12-1.57,2.24-1.57,3.83.05,26.83.01,53.66.05,80.48.01,7.89-1.98,15.09-7.11,21.23-8.79,10.53-20.09,14.64-33.36,11.37-12.82-3.16-20.83-11.79-24.01-24.6-.63-2.54-.65-5.27-.66-7.91-.05-26.89-.04-53.79,0-80.68,0-1.53-.48-2.57-1.55-3.63-28.87-28.71-57.71-57.45-86.54-86.19-9.09-9.07-11.94-20.02-8.52-32.18,3.3-11.72,11.28-19.52,23.13-22.56,11.95-3.06,22.68-.21,31.55,8.61,24.18,24.08,48.35,48.17,72.53,72.26.56.56,1.07,1.18,1.99,2.19Zm65.42-46.12c-18.51,18.44-37.09,36.95-55.88,55.67,4.62,4.53,9.45,9.19,14.19,13.94,3.68,3.69,6.16,8.12,7.67,13.09.45,1.49.75,3.03,1.05,4.27,20.1-20.03,40.24-40.1,60.24-60.03-14.86-3.02-23.86-12.33-27.26-26.93Zm-157.4,26.52c19.82,19.75,39.87,39.74,59.82,59.63,1.24-7.52,5.52-13.81,11.04-19.38,3.92-3.95,7.92-7.83,11.6-11.46-18.76-18.7-37.33-37.2-55.81-55.61-5.96,17.43-11.66,23.1-26.65,26.82Zm72.42,91.42v45.26c13.07-8.43,26.01-8.52,38.9-.1v-45.14c-5.84,4.56-12.34,6.39-19.36,6.41-7.09.02-13.6-1.98-19.54-6.43Zm39.05-25.92c.02-10.98-8.58-19.63-19.55-19.67-10.82-.04-19.59,8.63-19.64,19.42-.05,10.84,8.59,19.59,19.39,19.63,11.08.04,19.78-8.47,19.8-19.38Zm-19.55,77.87c-10.92,0-19.6,8.53-19.64,19.34-.04,10.93,8.66,19.65,19.59,19.64,10.93-.01,19.57-8.56,19.6-19.39.03-11.03-8.51-19.58-19.55-19.58ZM88.51,75.98c-.07-11.03-8.67-19.48-19.73-19.39-10.97.09-19.41,8.6-19.37,19.54.04,11.04,8.57,19.42,19.72,19.38,10.94-.04,19.45-8.62,19.38-19.53Zm176.02,19.54c11,.04,19.68-8.57,19.67-19.51,0-10.8-8.67-19.4-19.57-19.42-10.64-.02-19.55,8.86-19.57,19.51-.03,10.93,8.45,19.38,19.47,19.42Z"/><path class="cls-2" d="m775.53,43.32c-70.29.46-129.35,59.35-129.38,130.29-.02,70.81,60.02,132.05,134.15,130.06,66.9-1.8,127.21-58.29,126.24-130.14,1.09-71.41-59.53-130.68-131.01-130.21Zm3.03,202.98c-41.45,1.11-75.03-33.14-75.02-72.73.01-39.67,33.04-72.6,72.35-72.86,39.97-.26,73.87,32.88,73.26,72.81.54,40.18-33.18,71.77-70.59,72.78Z"/><path class="cls-3" d="m906.54,173.53c.97,71.85-59.34,128.35-126.24,130.14-74.13,1.99-134.17-59.25-134.15-130.06.02-70.94,59.08-129.83,129.38-130.29,71.48-.47,132.1,58.79,131.01,130.21Zm-130.14,116.98c64.08,1.11,116.77-53.6,117.4-115.67.66-64.89-53.98-118.19-116.56-118.55-63.78-.37-118.1,53.28-118.1,117.22,0,63.49,53.52,118.08,117.27,117Z"/><path class="cls-3" d="m776.4,251.52c-43.14.49-78.03-36.62-78.12-77.82-.09-42.25,36.06-78.38,78.36-78.3,42.17.08,78.19,36.31,78.03,78.43-.15,40.8-34.82,78.24-78.26,77.68Zm65.16-77.99c.44-35.65-30.58-65.2-65.18-65.16-34.72.04-65.2,29.9-65.1,65.33.09,35.57,31.06,65.12,65.48,64.97,33.77-.15,65.23-29.16,64.81-65.13Z"/><path class="cls-2" d="m561,202.41c-.35,21.16-7.09,40.35-19.9,57.27-13.08,17.28-29.39,30.43-50.03,37.81-14.38,5.14-29.21,6.56-44.42,5.61-44.49-2.79-79.55-37.24-91.17-69.42-4.35-12.05-6.4-24.47-6.05-37.27.4-14.55,11.8-27.76,26.12-30.42,16.67-3.09,33,6.71,37.61,22.81.94,3.27,1.25,6.79,1.36,10.21.64,19.46,14.23,35.39,33.4,38.94,21.78,4.04,43.25-10.42,47.37-32.05.63-3.3.72-6.73.72-10.11.05-39.25.02-78.5.07-117.75,0-3.1.14-6.28.82-9.28,3.35-14.75,16.68-25.19,31.85-25.16,15.01.02,28.28,10.52,31.61,25.21.64,2.81.78,5.79.79,8.69.06,20.59.2,103.87-.15,124.92Z"/><path class="cls-1" d="m561.08,139.25c0,21.05.27,42.11-.08,63.15-.35,21.16-7.09,40.35-19.9,57.27-13.08,17.28-29.39,30.43-50.03,37.81-14.38,5.14-29.21,6.56-44.42,5.61-44.49-2.79-79.55-37.24-91.17-69.42-4.35-12.05-6.4-24.47-6.05-37.27.4-14.55,11.8-27.76,26.12-30.42,16.67-3.09,33,6.71,37.61,22.81.94,3.27,1.25,6.79,1.36,10.21.64,19.46,14.23,35.39,33.4,38.94,21.78,4.04,43.25-10.42,47.37-32.05.63-3.3.72-6.73.72-10.11.05-39.25.02-78.5.07-117.75,0-3.1.14-6.28.82-9.28,3.35-14.75,16.68-25.19,31.85-25.16,15.01.02,28.28,10.52,31.61,25.21.64,2.81.78,5.79.79,8.69.06,20.59.03,41.17.03,61.76-.04,0-.07,0-.11,0Zm-194.01,87.77c.23.73.4,1.34.62,1.93,14.09,39.75,55.89,68.75,105.4,60.04,37.71-6.63,75.18-42.17,75.15-89.91-.02-31.68,0-63.36,0-95.04,0-.55-.08-1.1-.13-1.66-13.08,8.37-25.96,8.24-39.07-.11,0,.95,0,1.71,0,2.48,0,31.35.09,62.7-.11,94.04-.03,4.97-.94,10.05-2.25,14.86-4.66,17.17-22.87,36.27-47.22,37.64-18.78,1.06-34.16-5.47-46.01-19.95-2.82-3.45-4.9-7.49-7.36-11.32-11.19,10.98-24.28,13.07-39.03,7Zm14.73-9.67c10.99.03,19.65-8.43,19.68-19.25.03-11.02-8.51-19.7-19.44-19.76-10.91-.07-19.73,8.66-19.74,19.53-.01,10.82,8.63,19.45,19.5,19.49Zm146.87-121.84c11.04-.01,19.61-8.59,19.57-19.58-.03-10.81-8.72-19.37-19.63-19.35-11.03.03-19.6,8.6-19.56,19.6.03,10.84,8.66,19.34,19.62,19.33Z"/><path class="cls-3" d="m561,202.41c-.35,21.16-7.09,40.35-19.9,57.27-13.08,17.28-29.39,30.43-50.03,37.81-14.38,5.14-29.21,6.56-44.42,5.61-44.49-2.79-79.55-37.24-91.17-69.42-4.35-12.05-6.4-24.47-6.05-37.27.4-14.55,11.8-27.76,26.12-30.42,16.67-3.09,33,6.71,37.61,22.81.94,3.27,1.25,6.79,1.36,10.21.64,19.46,14.23,35.39,33.4,38.94,21.78,4.04,43.25-10.42,47.37-32.05.63-3.3.72-6.73.72-10.11.05-39.25.02-78.5.07-117.75,0-3.1.14-6.28.82-9.28,3.35-14.75,16.68-25.19,31.85-25.16,15.01.02,28.28,10.52,31.61,25.21.64,2.81.78,5.79.79,8.69.06,20.59.2,103.87-.15,124.92Zm-193.94,24.62c.23.73.4,1.34.62,1.93,14.09,39.75,55.89,68.75,105.4,60.04,37.71-6.63,75.18-42.17,75.15-89.91-.02-31.68,0-63.36,0-95.04,0-.55-.08-1.1-.13-1.66-13.08,8.37-25.96,8.24-39.07-.11,0,.95,0,1.71,0,2.48,0,31.35.09,62.7-.11,94.04-.03,4.97-.94,10.05-2.25,14.86-4.66,17.17-22.87,36.27-47.22,37.64-18.78,1.06-34.16-5.47-46.01-19.95-2.82-3.45-4.9-7.49-7.36-11.32-11.19,10.98-24.28,13.07-39.03,7Zm14.73-9.67c10.99.03,19.65-8.43,19.68-19.25.03-11.02-8.51-19.7-19.44-19.76-10.91-.07-19.73,8.66-19.74,19.53-.01,10.82,8.63,19.45,19.5,19.49Zm146.87-121.84c11.04-.01,19.61-8.59,19.57-19.58-.03-10.81-8.72-19.37-19.63-19.35-11.03.03-19.6,8.6-19.56,19.6.03,10.84,8.66,19.34,19.62,19.33Z"/></svg>