<svg width="30" height="24" viewBox="0 0 30 24" fill="none" xmlns="http://www.w3.org/2000/svg">
<path d="M1.07143 10.2559H28.9286C29.2127 10.2559 29.4853 10.1659 29.6862 10.0056C29.8871 9.84533 30 9.62794 30 9.40127V7.69195C30 7.46528 29.8871 7.2479 29.6862 7.08762C29.4853 6.92734 29.2127 6.83729 28.9286 6.83729H1.07143C0.787268 6.83729 0.514746 6.92734 0.313814 7.08762C0.112882 7.2479 0 7.46528 0 7.69195L0 9.40127C0 9.62794 0.112882 9.84533 0.313814 10.0056C0.514746 10.1659 0.787268 10.2559 1.07143 10.2559ZM28.9286 20.5119H1.07143C0.787268 20.5119 0.514746 20.6019 0.313814 20.7622C0.112882 20.9225 0 21.1399 0 21.3665L0 23.0759C0 23.3025 0.112882 23.5199 0.313814 23.6802C0.514746 23.8405 0.787268 23.9305 1.07143 23.9305H28.9286C29.2127 23.9305 29.4853 23.8405 29.6862 23.6802C29.8871 23.5199 30 23.3025 30 23.0759V21.3665C30 21.1399 29.8871 20.9225 29.6862 20.7622C29.4853 20.6019 29.2127 20.5119 28.9286 20.5119ZM29.1408 2.08515e-07H11.5734C11.4606 -7.00364e-05 11.3488 0.0176086 11.2445 0.0520248C11.1403 0.0864411 11.0455 0.13692 10.9657 0.200572C10.8859 0.264225 10.8227 0.339804 10.7795 0.422984C10.7364 0.506164 10.7142 0.595313 10.7143 0.685332V2.73331C10.7142 2.82333 10.7364 2.91248 10.7795 2.99566C10.8227 3.07884 10.8859 3.15442 10.9657 3.21807C11.0455 3.28173 11.1403 3.3322 11.2445 3.36662C11.3488 3.40104 11.4606 3.41872 11.5734 3.41865H29.1408C29.2537 3.41872 29.3655 3.40104 29.4697 3.36662C29.574 3.3322 29.6688 3.28173 29.7486 3.21807C29.8284 3.15442 29.8916 3.07884 29.9348 2.99566C29.9779 2.91248 30.0001 2.82333 30 2.73331V0.685332C30.0001 0.595313 29.9779 0.506164 29.9348 0.422984C29.8916 0.339804 29.8284 0.264225 29.7486 0.200572C29.6688 0.13692 29.574 0.0864411 29.4697 0.0520248C29.3655 0.0176086 29.2537 -7.00364e-05 29.1408 2.08515e-07ZM29.1408 13.6746H11.5734C11.4606 13.6745 11.3488 13.6922 11.2445 13.7266C11.1403 13.761 11.0455 13.8115 10.9657 13.8752C10.8859 13.9388 10.8227 14.0144 10.7795 14.0976C10.7364 14.1807 10.7142 14.2699 10.7143 14.3599V16.4079C10.7142 16.4979 10.7364 16.5871 10.7795 16.6702C10.8227 16.7534 10.8859 16.829 10.9657 16.8927C11.0455 16.9563 11.1403 17.0068 11.2445 17.0412C11.3488 17.0756 11.4606 17.0933 11.5734 17.0932H29.1408C29.2537 17.0933 29.3655 17.0756 29.4697 17.0412C29.574 17.0068 29.6688 16.9563 29.7486 16.8927C29.8284 16.829 29.8916 16.7534 29.9348 16.6702C29.9779 16.5871 30.0001 16.4979 30 16.4079V14.3599C30.0001 14.2699 29.9779 14.1807 29.9348 14.0976C29.8916 14.0144 29.8284 13.9388 29.7486 13.8752C29.6688 13.8115 29.574 13.761 29.4697 13.7266C29.3655 13.6922 29.2537 13.6745 29.1408 13.6746Z" fill="#787272"/>
</svg>
