<svg width="166" height="186" viewBox="0 0 166 186" fill="none" xmlns="http://www.w3.org/2000/svg">
<path d="M80.1687 46.3507C80.3957 46.6947 80.6947 46.9852 81.045 47.2022C81.3953 47.4192 81.7886 47.5575 82.1976 47.6075C82.6066 47.6576 83.0216 47.6182 83.4139 47.4921C83.8062 47.366 84.1665 47.1562 84.4697 46.8772L97.3961 52.7091L99.8883 49.5303L84.4848 42.7159C83.9771 42.2404 83.3127 41.9676 82.6174 41.9492C81.9221 41.9309 81.2442 42.1682 80.7122 42.6162C80.1802 43.0643 79.831 43.6919 79.7309 44.3802C79.6307 45.0685 79.7865 45.7696 80.1687 46.3507H80.1687Z" fill="#A0616A"/>
<path d="M132.891 82.0085L124.956 98.9148L155.482 95.823L149.11 79.5933L132.891 82.0085Z" fill="#E78D9A"/>
<path d="M139.988 179.179L137.094 179.155L135.813 167.731L140.084 167.767L139.988 179.179Z" fill="#A0616A"/>
<path d="M130.717 183.782C130.715 184.125 130.848 184.455 131.089 184.7C131.329 184.944 131.657 185.084 132 185.087L137.755 185.135L138.762 183.093L139.132 185.146L141.304 185.165L140.755 177.845L140 177.795L136.919 177.582L135.924 177.516L135.907 179.587L131.284 182.722C131.111 182.84 130.969 182.998 130.87 183.182C130.772 183.367 130.719 183.572 130.717 183.782Z" fill="#2F2E41"/>
<path d="M107.958 179.193L105.198 178.319L107.33 167.022L111.403 168.312L107.958 179.193Z" fill="#A0616A"/>
<path d="M97.7437 180.868C97.6404 181.195 97.6711 181.55 97.8291 181.854C97.9871 182.159 98.2595 182.388 98.5865 182.492L104.073 184.229L105.636 182.573L105.387 184.644L107.456 185.301L109.083 178.142L108.376 177.872L105.493 176.764L104.562 176.408L103.937 178.383L98.5969 180.022C98.3969 180.083 98.2147 180.192 98.0661 180.34C97.9175 180.487 97.8068 180.668 97.7437 180.868Z" fill="#2F2E41"/>
<path d="M154.092 91.0686L126.336 96.1545C126.336 96.1545 121.884 99.4847 123.075 100.677C124.266 101.87 124.45 101.685 123.668 102.468C122.885 103.25 121.194 104.296 121.177 104.981C121.16 105.665 108.739 136.373 108.739 136.373C108.739 136.373 110.119 135.683 109.084 136.718C108.049 137.753 108.049 138.608 108.049 138.608L103.219 171.22L111.064 171.682L118.745 141.95L135.879 114.174C135.879 114.174 137.579 138.943 137.65 140.591C137.722 142.238 138.757 140.168 137.722 142.238C136.686 144.308 135.996 142.928 136.686 144.308C137.377 145.688 134.201 173.786 134.201 173.786H141.361L156.718 115.548C156.718 115.548 162.182 98.8986 154.092 91.0686Z" fill="#2F2E41"/>
<path d="M161.222 35.9622C161.295 39.0961 160.124 42.1306 158.441 44.7959C157.942 43.2399 157.043 41.8238 156.106 40.4738C156.578 43.3942 156.075 46.3889 154.674 48.9944C154.624 49.0298 154.573 49.0626 154.52 49.0927C153.149 49.9177 151.41 50.2518 149.927 49.656C152.992 46.3518 153.382 40.8772 150.812 37.171C150.085 36.1193 149.144 35.1892 148.693 33.9924C147.981 32.0829 148.665 29.9804 149.097 27.9895C149.5 26.1365 149.571 23.9315 148.328 22.5736C148.461 22.3838 148.642 22.2327 148.852 22.1359C149.062 22.039 149.295 21.9998 149.525 22.0223C150.292 22.1306 150.85 22.7968 151.205 23.4829C151.56 24.169 151.795 24.9295 152.29 25.5221C153.207 26.6314 154.768 26.8936 156.085 27.4783C159.272 28.8979 161.146 32.475 161.222 35.9622Z" fill="#2F2E41"/>
<path d="M161.91 108.596C163.625 108.596 165.016 107.206 165.016 105.491C165.016 103.776 163.625 102.386 161.91 102.386C160.195 102.386 158.805 103.776 158.805 105.491C158.805 107.206 160.195 108.596 161.91 108.596Z" fill="#BEAE72"/>
<path d="M134.394 34.1703C134.576 33.5329 133.32 37.4296 133.926 37.4999C136.685 37.8165 140.473 39.4642 142.394 40.233C142.481 40.2229 142.568 40.2128 142.651 40.2003C142.858 40.1777 143.059 40.145 143.257 40.1073C147.732 39.2607 149.452 32.3873 149.452 32.3245C149.452 32.0155 148.711 23.5288 147.543 23.4032C147.236 23.3699 146.927 23.3531 146.619 23.3529H143.72C143.12 23.2237 142.512 23.1355 141.9 23.0891H141.895C136.058 22.6445 131.457 26.2017 131.887 30.5302C131.889 30.5352 131.894 30.5403 131.897 30.5453C132.022 30.7312 132.131 30.907 132.228 31.0754C132.322 31.2336 132.401 31.3843 132.47 31.5275C133.002 32.6329 131.634 34.0238 132.541 34.2834C133.747 34.6287 129.369 45.9776 134.142 45.9776C131.821 46.6377 133.891 35.9289 134.394 34.1703Z" fill="#2F2E41"/>
<path d="M139.604 40.8294C143.395 40.8294 146.468 37.7564 146.468 33.9656C146.468 30.1748 143.395 27.1018 139.604 27.1018C135.813 27.1018 132.74 30.1748 132.74 33.9656C132.74 37.7564 135.813 40.8294 139.604 40.8294Z" fill="url(#paint0_radial_1_227)"/>
<path d="M131.887 30.9046C132.002 30.9649 132.113 31.0202 132.228 31.0754C132.348 31.1332 132.467 31.191 132.587 31.2437C134.885 32.2863 136.756 32.4019 137.891 30.9046C137.922 30.1168 138.099 29.3415 138.413 28.6185C138.357 29.4265 138.57 30.2302 139.019 30.9046H141.304C143.659 32.4672 144.868 32.6305 143.234 37.7603C142.778 39.1898 140.967 47.5076 141.679 48.7411C141.885 48.7185 144.079 39.6079 144.277 39.5702C148.752 38.7236 151.595 31.3518 151.231 30.9348C151.233 29.7489 150.96 28.5786 150.434 27.5157C149.769 26.169 148.732 25.0409 147.446 24.2649C146.679 23.8932 145.88 23.593 145.059 23.3681C145.038 23.363 145.02 23.358 145 23.353C144.748 23.2852 144.491 23.2224 144.234 23.1696C143.703 23.0575 143.166 22.9761 142.625 22.9259C142.587 22.9234 142.549 22.9209 142.513 22.9209C142.298 22.9214 142.086 22.9795 141.9 23.0892C141.897 23.0892 141.897 23.0917 141.895 23.0917C141.762 23.1693 141.646 23.2727 141.554 23.3957C141.391 23.6027 141.303 23.8585 141.304 24.1217H138.759C138.665 24.1217 138.571 24.1242 138.477 24.1292C136.778 24.1873 135.162 24.8772 133.945 26.0639C132.728 27.2505 131.998 28.8486 131.897 30.5454C131.89 30.666 131.887 30.784 131.887 30.9046Z" fill="#2F2E41"/>
<path d="M146.894 28.7103C149.392 28.7103 151.416 26.6858 151.416 24.1884C151.416 21.691 149.392 19.6665 146.894 19.6665C144.397 19.6665 142.372 21.691 142.372 24.1884C142.372 26.6858 144.397 28.7103 146.894 28.7103Z" fill="#2F2E41"/>
<path d="M161.945 106.772C162.166 106.424 162.308 106.032 162.363 105.623C162.417 105.215 162.382 104.799 162.26 104.406C162.138 104.012 161.932 103.65 161.656 103.344C161.381 103.037 161.042 102.795 160.663 102.633L160.685 88.4515L156.764 87.481L156.861 104.324C156.635 104.982 156.659 105.7 156.927 106.342C157.195 106.984 157.689 107.505 158.316 107.806C158.943 108.108 159.658 108.169 160.327 107.979C160.996 107.788 161.572 107.358 161.945 106.772V106.772Z" fill="#E88F9C"/>
<path d="M135.643 49.9871L136.925 57.2521C136.985 57.5911 136.973 57.9388 136.891 58.2729C136.808 58.607 136.657 58.9202 136.446 59.1924C136.236 59.4645 135.97 59.6896 135.667 59.8531C135.365 60.0167 135.031 60.1151 134.688 60.1421L112.903 61.8552L87.2965 50.3949L90.3549 44.5891L112.584 51.6284L135.643 49.9871Z" fill="url(#paint1_radial_1_227)"/>
<path d="M145.915 44.4858L134.797 43.3306L131.916 47.0704L128.561 48.8577C127.14 49.6141 125.968 50.7635 125.184 52.1685C124.4 53.5735 124.037 55.1746 124.139 56.7804L128.061 79.5932C128.061 79.5932 124.748 87.0524 127.026 88.9089C129.303 90.7655 125.265 95.3634 130.131 93.0493C134.997 90.7351 156.008 93.3943 156.008 93.3943L151.523 80.6283L154.873 68.084L155.242 57.5657C155.311 55.6002 154.728 53.6671 153.583 52.0678C152.439 50.4684 150.797 49.2927 148.915 48.7238L148.446 48.5822L145.915 44.4858Z" fill="url(#paint2_radial_1_227)"/>
<path d="M142.528 54.6788L148.63 50.5321C148.915 50.3386 149.237 50.2069 149.575 50.1452C149.914 50.0835 150.262 50.0933 150.596 50.174C150.931 50.2547 151.245 50.4044 151.518 50.6136C151.791 50.8228 152.018 51.0868 152.183 51.3887L162.673 70.558L162.713 98.6123L156.164 98.2018L153.475 75.0403L142.528 54.6788Z" fill="url(#paint3_radial_1_227)"/>
<path d="M92.4586 44.0643H91.4398V16.1538C91.4398 14.0325 91.022 11.9319 90.2102 9.97204C89.3984 8.01216 88.2085 6.23138 86.7085 4.73135C85.2085 3.23133 83.4277 2.04144 81.4678 1.22964C79.5079 0.417831 77.4074 0 75.286 0H16.1539C14.0325 -4.98402e-06 11.9319 0.417821 9.97205 1.22962C8.01217 2.04142 6.23138 3.23131 4.73136 4.73132C3.23134 6.23134 2.04145 8.01212 1.22964 9.97199C0.417833 11.9319 4.07787e-06 14.0324 0 16.1538V169.273C-2.71856e-06 171.394 0.417818 173.495 1.22962 175.455C2.04143 177.415 3.23132 179.195 4.73134 180.695C6.23136 182.195 8.01213 183.385 9.97201 184.197C11.9319 185.009 14.0325 185.427 16.1538 185.427H75.2859C77.4073 185.427 79.5079 185.009 81.4678 184.197C83.4276 183.385 85.2084 182.195 86.7085 180.695C88.2085 179.195 89.3984 177.415 90.2102 175.455C91.022 173.495 91.4398 171.394 91.4398 169.273V63.9315H92.4586V44.0643Z" fill="#3F3D56"/>
<path d="M88.0012 16.2649V169.161C88.0012 170.745 87.6891 172.314 87.0827 173.778C86.4763 175.241 85.5875 176.571 84.4671 177.691C83.3467 178.811 82.0166 179.699 80.5527 180.305C79.0889 180.911 77.5201 181.223 75.9359 181.222H16.519C14.9351 181.222 13.3667 180.91 11.9033 180.304C10.44 179.698 9.11033 178.81 7.99033 177.69C6.87032 176.57 5.9819 175.24 5.37581 173.777C4.76972 172.313 4.45784 170.745 4.45795 169.161V16.2649C4.45784 14.681 4.76972 13.1125 5.37581 11.6492C5.9819 10.1858 6.87032 8.85617 7.99033 7.73618C9.11033 6.61619 10.44 5.72778 11.9033 5.12171C13.3667 4.51563 14.9351 4.20374 16.519 4.20386H23.7296C23.3756 5.07415 23.2409 6.01808 23.3374 6.95262C23.4338 7.88717 23.7585 8.7837 24.2827 9.56336C24.8069 10.343 25.5147 10.9819 26.3437 11.4239C27.1728 11.8659 28.0977 12.0973 29.0372 12.098H62.9125C63.8526 12.0988 64.7784 11.8683 65.6083 11.4268C66.4382 10.9853 67.1467 10.3462 67.6712 9.56613C68.1958 8.78602 68.5202 7.8888 68.616 6.95363C68.7118 6.01847 68.5759 5.0741 68.2204 4.20386H75.9359C77.5201 4.20328 79.0889 4.51483 80.5527 5.12069C82.0166 5.72656 83.3467 6.61488 84.4671 7.7349C85.5875 8.85493 86.4763 10.1847 87.0827 11.6483C87.6891 13.1119 88.0012 14.6806 88.0012 16.2649Z" fill="white"/>
<path d="M69.5188 95.7178H17.2932C16.3784 95.7167 15.5014 95.3529 14.8546 94.7061C14.2078 94.0592 13.8439 93.1823 13.8429 92.2675V90.5501C13.8439 89.6354 14.2078 88.7584 14.8546 88.1115C15.5014 87.4647 16.3784 87.1009 17.2932 87.0999H69.5188C70.4335 87.1009 71.3105 87.4647 71.9573 88.1115C72.6042 88.7584 72.968 89.6354 72.969 90.5501V92.2675C72.968 93.1823 72.6042 94.0592 71.9573 94.7061C71.3105 95.3529 70.4335 95.7167 69.5188 95.7178Z" fill="#F0F0F0"/>
<path d="M72.1313 92.4068H19.9057C18.9452 92.4057 18.0244 92.0237 17.3452 91.3445C16.666 90.6653 16.284 89.7445 16.2829 88.784V87.0666C16.284 86.1061 16.666 85.1853 17.3452 84.5061C18.0244 83.827 18.9452 83.4449 19.9057 83.4438H72.1313C73.0918 83.4449 74.0126 83.827 74.6918 84.5061C75.3709 85.1853 75.753 86.1061 75.7541 87.0666V88.784C75.753 89.7445 75.3709 90.6653 74.6918 91.3445C74.0126 92.0237 73.0918 92.4057 72.1313 92.4068ZM19.9057 84.1339C19.1281 84.1348 18.3827 84.444 17.8329 84.9938C17.2831 85.5436 16.9738 86.2891 16.973 87.0666V88.784C16.9738 89.5616 17.2831 90.307 17.8329 90.8568C18.3827 91.4066 19.1281 91.7159 19.9057 91.7167H72.1313C72.9088 91.7159 73.6543 91.4066 74.2041 90.8568C74.7539 90.307 75.0631 89.5616 75.064 88.784V87.0666C75.0631 86.2891 74.7539 85.5436 74.2041 84.9938C73.6543 84.444 72.9088 84.1348 72.1313 84.1339H19.9057Z" fill="#3F3D56"/>
<path d="M22.1052 91.2105C23.8202 91.2105 25.2105 89.8202 25.2105 88.1052C25.2105 86.3903 23.8202 85 22.1052 85C20.3903 85 19 86.3903 19 88.1052C19 89.8202 20.3903 91.2105 22.1052 91.2105Z" fill="#BEAE72"/>
<path d="M34.1052 91.0105C35.8202 91.0105 37.2105 89.6203 37.2105 87.9053C37.2105 86.1903 35.8202 84.8 34.1052 84.8C32.3903 84.8 31 86.1903 31 87.9053C31 89.6203 32.3903 91.0105 34.1052 91.0105Z" fill="#BEAE72"/>
<path d="M46.1052 91.0105C47.8202 91.0105 49.2105 89.6203 49.2105 87.9053C49.2105 86.1903 47.8202 84.8 46.1052 84.8C44.3903 84.8 43 86.1903 43 87.9053C43 89.6203 44.3903 91.0105 46.1052 91.0105Z" fill="#BEAE72"/>
<path d="M58.1052 91.0105C59.8202 91.0105 61.2105 89.6203 61.2105 87.9053C61.2105 86.1903 59.8202 84.8 58.1052 84.8C56.3903 84.8 55 86.1903 55 87.9053C55 89.6203 56.3903 91.0105 58.1052 91.0105Z" fill="#BEAE72"/>
<path d="M88.0012 16.2649V49.5219C82.7168 50.9122 77.1839 51.0717 71.8282 49.9882C66.4724 48.9047 61.4367 46.607 57.1082 43.2719C52.7798 39.9369 49.2741 35.6533 46.8609 30.7509C44.4477 25.8484 43.1912 20.4577 43.1882 14.9935C43.1882 14.0181 43.2274 13.053 43.3058 12.098H62.9125C63.8525 12.0988 64.7784 11.8683 65.6083 11.4268C66.4382 10.9853 67.1467 10.3462 67.6712 9.56613C68.1957 8.78602 68.5202 7.8888 68.616 6.95363C68.7118 6.01847 68.5759 5.0741 68.2204 4.20386H75.9358C77.5201 4.20328 79.0889 4.51483 80.5527 5.12069C82.0165 5.72656 83.3467 6.61488 84.4671 7.7349C85.5875 8.85493 86.4763 10.1847 87.0827 11.6483C87.6891 13.1119 88.0012 14.6806 88.0012 16.2649Z" fill="#F0F0F0"/>
<path d="M34.48 179.145C34.48 179.846 34.4538 180.538 34.3972 181.222H16.519C14.9351 181.222 13.3667 180.91 11.9033 180.304C10.44 179.698 9.11033 178.81 7.99033 177.69C6.87032 176.57 5.9819 175.24 5.37581 173.777C4.76972 172.313 4.45784 170.745 4.45795 169.161V152.807C8.20547 152.319 12.0138 152.636 15.6292 153.737C19.2446 154.837 22.584 156.695 25.4248 159.187C28.2656 161.679 30.5426 164.748 32.104 168.19C33.6654 171.631 34.4754 175.366 34.4799 179.145H34.48Z" fill="#F0F0F0"/>
<path d="M54.7147 128.374H29.9203C29.0056 128.373 28.1285 128.009 27.4817 127.362C26.8349 126.715 26.4711 125.839 26.47 124.924V123.206C26.4711 122.292 26.8349 121.415 27.4817 120.768C28.1285 120.121 29.0056 119.757 29.9203 119.756H54.7147C55.6294 119.757 56.5064 120.121 57.1532 120.768C57.8 121.415 58.1639 122.292 58.1649 123.206V124.924C58.1639 125.839 57.8 126.715 57.1532 127.362C56.5064 128.009 55.6294 128.373 54.7147 128.374Z" fill="url(#paint4_radial_1_227)"/>
<path d="M57.3272 125.063H32.5328C31.5723 125.062 30.6514 124.68 29.9723 124.001C29.2931 123.322 28.9111 122.401 28.91 121.441V119.723C28.9111 118.763 29.2931 117.842 29.9723 117.163C30.6514 116.483 31.5723 116.101 32.5328 116.1H57.3272C58.2877 116.101 59.2085 116.483 59.8877 117.163C60.5668 117.842 60.9489 118.763 60.95 119.723V121.441C60.9489 122.401 60.5668 123.322 59.8877 124.001C59.2085 124.68 58.2877 125.062 57.3272 125.063ZM32.5328 116.79C31.7552 116.791 31.0098 117.101 30.46 117.65C29.9102 118.2 29.6009 118.946 29.6 119.723V121.441C29.6009 122.218 29.9102 122.963 30.46 123.513C31.0098 124.063 31.7552 124.372 32.5328 124.373H57.3272C58.1047 124.372 58.8502 124.063 59.4 123.513C59.9498 122.963 60.2591 122.218 60.2599 121.441V119.723C60.2591 118.946 59.9498 118.2 59.4 117.65C58.8502 117.101 58.1047 116.791 57.3272 116.79H32.5328Z" fill="#3F3D56"/>
<defs>
<radialGradient id="paint0_radial_1_227" cx="0" cy="0" r="1" gradientUnits="userSpaceOnUse" gradientTransform="translate(136.898 32.1119) rotate(52.125) scale(9.63506 9.63506)">
<stop stop-color="#F8ABB6"/>
<stop offset="1" stop-color="#E28693"/>
</radialGradient>
<radialGradient id="paint1_radial_1_227" cx="0" cy="0" r="1" gradientUnits="userSpaceOnUse" gradientTransform="translate(102.988 46.2319) rotate(20.2049) scale(37.063 33.8367)">
<stop stop-color="#EE2E53"/>
<stop offset="1" stop-color="#EE2E53"/>
</radialGradient>
<radialGradient id="paint2_radial_1_227" cx="0" cy="0" r="1" gradientUnits="userSpaceOnUse" gradientTransform="translate(134.196 48.1217) rotate(59.1148) scale(43.5014 53.9775)">
<stop stop-color="#EE2E53"/>
<stop offset="1" stop-color="#EE2E53"/>
</radialGradient>
<radialGradient id="paint3_radial_1_227" cx="0" cy="0" r="1" gradientUnits="userSpaceOnUse" gradientTransform="translate(148.906 54.7204) rotate(68.5416) scale(38.6407 37.0558)">
<stop stop-color="#EE2E53"/>
<stop offset="1" stop-color="#EE2E53"/>
</radialGradient>
<radialGradient id="paint4_radial_1_227" cx="0" cy="0" r="1" gradientUnits="userSpaceOnUse" gradientTransform="translate(28.9622 120.934) rotate(13.8395) scale(28.1015 25.6049)">
<stop stop-color="#EE5C2E"/>
<stop offset="1" stop-color="#EE2E53"/>
</radialGradient>
</defs>
</svg>
