<?xml version="1.0" encoding="UTF-8"?><svg id="Layer_1" xmlns="http://www.w3.org/2000/svg" viewBox="0 0 600 600"><defs><style>.cls-1{fill:#f02d50;}.cls-2{fill:#beaf73;}</style></defs><path class="cls-1" d="m300.17,212.34c2.31-2.59,4.06-4.78,6.03-6.74,45.39-45.26,90.78-90.52,136.21-135.74,22.81-22.69,57.54-25.2,82.58-6.06,30.38,23.21,33.67,66.47,6.68,93.5-55.28,55.37-110.78,110.52-166.25,165.7-2.16,2.15-3.01,4.29-3,7.34.09,51.39.03,102.78.09,154.17.02,15.12-3.8,28.9-13.62,40.67-16.83,20.17-38.49,28.04-63.9,21.77-24.56-6.06-39.89-22.58-45.99-47.12-1.21-4.86-1.25-10.09-1.26-15.15-.09-51.52-.08-103.03,0-154.55,0-2.92-.92-4.91-2.97-6.95-55.3-55-110.54-110.04-165.77-165.11-17.42-17.37-22.88-38.34-16.32-61.64,6.32-22.45,21.61-37.4,44.31-43.21,22.9-5.87,43.45-.41,60.43,16.5,46.33,46.12,92.63,92.27,138.93,138.42,1.08,1.08,2.06,2.26,3.81,4.2Z"/><path class="cls-2" d="m300.17,212.34c2.31-2.59,4.06-4.78,6.03-6.74,45.39-45.26,90.78-90.52,136.21-135.74,22.81-22.69,57.54-25.2,82.58-6.06,30.38,23.21,33.67,66.47,6.68,93.5-55.28,55.37-110.78,110.52-166.25,165.7-2.16,2.15-3.01,4.29-3,7.34.09,51.39.03,102.78.09,154.17.02,15.12-3.8,28.9-13.62,40.67-16.83,20.17-38.49,28.04-63.9,21.77-24.56-6.06-39.89-22.58-45.99-47.12-1.21-4.86-1.25-10.09-1.26-15.15-.09-51.52-.08-103.03,0-154.55,0-2.92-.92-4.91-2.97-6.95-55.3-55-110.54-110.04-165.77-165.11-17.42-17.37-22.88-38.34-16.32-61.64,6.32-22.45,21.61-37.4,44.31-43.21,22.9-5.87,43.45-.41,60.43,16.5,46.33,46.12,92.63,92.27,138.93,138.42,1.08,1.08,2.06,2.26,3.81,4.2Zm125.32-88.34c-35.45,35.31-71.04,70.77-107.04,106.64,8.85,8.67,18.1,17.6,27.18,26.69,7.05,7.06,11.8,15.56,14.69,25.07.87,2.86,1.43,5.81,2.01,8.17,38.51-38.37,77.09-76.82,115.39-114.98-28.47-5.79-45.7-23.62-52.22-51.59Zm-301.51,50.8c37.96,37.84,76.38,76.13,114.59,114.22,2.37-14.41,10.57-26.46,21.14-37.12,7.51-7.57,15.17-15.01,22.22-21.96-35.94-35.82-71.52-71.26-106.9-106.52-11.42,33.38-22.33,44.25-51.05,51.38Zm138.72,175.12v86.69c25.03-16.14,49.83-16.33,74.52-.18v-86.47c-11.19,8.73-23.64,12.23-37.08,12.27-13.58.04-26.05-3.8-37.44-12.31Zm74.81-49.65c.04-21.03-16.43-37.6-37.45-37.68-20.72-.08-37.52,16.53-37.63,37.19-.1,20.76,16.45,37.53,37.14,37.61,21.22.08,37.89-16.23,37.93-37.12Zm-37.46,149.17c-20.92-.01-37.54,16.35-37.61,37.04-.08,20.93,16.6,37.64,37.52,37.62,20.94-.03,37.49-16.4,37.55-37.15.06-21.12-16.29-37.5-37.46-37.51ZM150.1,113.17c-.13-21.12-16.61-37.32-37.8-37.14-21.01.17-37.17,16.48-37.1,37.43.07,21.14,16.41,37.2,37.77,37.12,20.95-.08,37.26-16.51,37.13-37.41Zm337.17,37.43c21.07.07,37.69-16.42,37.68-37.37-.01-20.7-16.61-37.16-37.49-37.2-20.39-.03-37.44,16.97-37.49,37.38-.05,20.93,16.19,37.12,37.3,37.19Z"/></svg>