 <svg
      width="35"
      height="46"
      viewBox="0 0 35 46"
      fill="none"
      xmlns="http://www.w3.org/2000/svg"
    >
      <path
        d="M6.54253 41.8611L5.34791 40.5298C4.45478 39.5348 0 34.4092 0 31.2289C0 27.6213 2.93482 24.6865 6.54253 24.6865C10.1498 24.6865 13.0849 27.6213 13.0849 31.2289C13.0849 34.4092 8.63008 39.5346 7.73715 40.5298L6.54253 41.8611ZM6.54253 27.8967C4.70506 27.8967 3.21019 29.3914 3.21019 31.2289C3.21019 32.0907 4.45622 34.3994 6.54191 36.9827C8.62802 34.3971 9.87468 32.0887 9.87468 31.2289C9.87488 29.3916 8.38001 27.8967 6.54253 27.8967Z"
        fill="#6F6B7D"
      />
      <path
        d="M6.54205 37.7788L6.15288 37.2968C5.09609 35.9879 4.24698 34.7425 3.65911 33.7071C3.36542 33.1898 3.13296 32.7181 2.97247 32.312C2.81718 31.9191 2.71019 31.5414 2.71019 31.2289C2.71019 29.1152 4.42895 27.3967 6.54253 27.3967C8.65611 27.3967 10.3749 29.1154 10.3747 31.2289L6.54205 37.7788ZM6.54205 37.7788L6.93105 37.2967M6.54205 37.7788L6.93105 37.2967M6.93105 37.2967C7.98798 35.9867 8.8373 34.7408 9.42535 33.7056M6.93105 37.2967L9.42535 33.7056M9.42535 33.7056C9.71912 33.1884 9.95166 32.7167 10.1122 32.311M9.42535 33.7056L10.1122 32.311M10.1122 32.311C10.2675 31.9185 10.3747 31.5411 10.3747 31.2289L10.1122 32.311ZM6.54253 41.1125L5.72006 40.1958L5.71999 40.1958C5.27987 39.7055 3.95972 38.1944 2.75259 36.4178C2.14893 35.5294 1.58055 34.5848 1.16469 33.6759C0.745234 32.7591 0.5 31.9192 0.5 31.2289C0.5 27.8975 3.21096 25.1865 6.54253 25.1865C9.8737 25.1865 12.5849 27.8975 12.5849 31.2289C12.5849 31.9192 12.3396 32.7591 11.9202 33.6759C11.5043 34.5848 10.9359 35.5294 10.3323 36.4178C9.12519 38.1943 7.80509 39.7054 7.365 40.1958L7.73715 40.5298L7.365 40.1958L6.54253 41.1125Z"
        stroke="#D1D0D5"
        stroke-opacity="0.5"
      />
      <path
        d="M26.2906 17.1748L25.096 15.8434C24.2028 14.8485 19.748 9.7227 19.748 6.54233C19.748 2.93482 22.6829 0 26.2906 0C29.8979 0 32.8329 2.93482 32.8329 6.54233C32.8329 9.7227 28.3783 14.8481 27.4852 15.8434L26.2906 17.1748ZM26.2906 3.21019C24.4531 3.21019 22.9582 4.70485 22.9582 6.54233C22.9582 7.40215 24.2045 9.71016 26.2906 12.2956C28.3765 9.71036 29.6227 7.40235 29.6227 6.54233C29.6229 4.70485 28.1281 3.21019 26.2906 3.21019Z"
        fill="#6F6B7D"
      />
      <path
        d="M26.2906 13.0918L25.9015 12.6096C24.8445 11.2996 23.9953 10.054 23.4073 9.01879C23.1136 8.50165 22.8811 8.03009 22.7206 7.62438C22.5653 7.23192 22.4582 6.85454 22.4582 6.54233C22.4582 4.42867 24.177 2.71019 26.2906 2.71019C28.4041 2.71019 30.1229 4.42864 30.1227 6.54233L26.2906 13.0918ZM26.2906 13.0918L26.6797 12.6096M26.2906 13.0918L26.6797 12.6096M26.6797 12.6096C27.7365 11.2997 28.5857 10.0541 29.1736 9.01894M26.6797 12.6096L29.1736 9.01894M29.1736 9.01894C29.4673 8.50179 29.6998 8.03022 29.8603 7.62449M29.1736 9.01894L29.8603 7.62449M29.8603 7.62449C30.0156 7.23201 30.1227 6.85462 30.1227 6.54238L29.8603 7.62449ZM25.4681 15.5095L25.468 15.5094C25.0279 15.0192 23.7078 13.508 22.5006 11.7314C21.897 10.843 21.3286 9.89836 20.9127 8.98941C20.4933 8.07261 20.248 7.23264 20.248 6.54233C20.248 3.21098 22.959 0.5 26.2906 0.5C29.6217 0.5 32.3329 3.21098 32.3329 6.54233C32.3329 7.23264 32.0877 8.07259 31.6683 8.98936C31.2524 9.89828 30.6841 10.8429 30.0804 11.7313C28.8733 13.5078 27.5532 15.019 27.1131 15.5095L27.113 15.5095L26.2906 16.4261L25.4681 15.5095Z"
        stroke="#D1D0D5"
        stroke-opacity="0.5"
      />
      <path
        d="M27.8117 18.3933H24.6016V21.6035H27.8117V18.3933Z"
        fill="#FBB03B"
      />
      <path
        d="M25.1016 18.8933H27.3117V21.1035H25.1016V18.8933Z"
        stroke="#D1D0D5"
        stroke-opacity="0.5"
      />
      <path d="M8.33541 42.7898H4.69727V46H8.33541V42.7898Z" fill="#FBB03B" />
      <path
        d="M5.19727 43.2898H7.83541V45.5H5.19727V43.2898Z"
        stroke="#D1D0D5"
        stroke-opacity="0.5"
      />
      <path
        d="M27.9379 45.9998H9.83398V42.7896H27.9379C29.7754 42.7896 31.2701 41.2947 31.2701 39.4572C31.2701 37.6198 29.7754 36.1251 27.9379 36.1251H21.3547C18.6547 36.1251 16.4582 33.9283 16.4582 31.2284C16.4582 28.5284 18.6547 26.3319 21.3547 26.3319H23.5399C24.1725 26.3319 24.687 25.8173 24.687 25.1847V22.9995H27.8972V25.1847C27.8972 27.5873 25.9425 29.542 23.5399 29.542H21.3547C20.4247 29.542 19.6684 30.2986 19.6684 31.2284C19.6684 32.1585 20.4249 32.9149 21.3547 32.9149H27.9379C31.5452 32.9149 34.4803 35.8497 34.4803 39.4572C34.4803 43.065 31.5452 45.9998 27.9379 45.9998Z"
        fill="#6F6B7D"
      />
      <path
        d="M27.9379 45.4998H10.334V43.2896H27.9379C30.0516 43.2896 31.7701 41.5708 31.7701 39.4572C31.7701 37.3436 30.0516 35.6251 27.9379 35.6251H21.3547C18.9309 35.6251 16.9582 33.6522 16.9582 31.2284C16.9582 28.8045 18.9308 26.8319 21.3547 26.8319H23.5399C24.4486 26.8319 25.187 26.0935 25.187 25.1847V23.4995H27.3972V25.1847C27.3972 27.3112 25.6664 29.042 23.5399 29.042H21.3547C20.1486 29.042 19.1684 30.0225 19.1684 31.2284C19.1684 32.4347 20.1488 33.4149 21.3547 33.4149H27.9379C31.2691 33.4149 33.9803 36.1259 33.9803 39.4572C33.9803 42.7888 31.2691 45.4998 27.9379 45.4998Z"
        stroke="#D1D0D5"
        stroke-opacity="0.5"
      />
    </svg>