<svg
      width="40"
      height="36"
      viewBox="0 0 40 36"
      fill="none"
      xmlns="http://www.w3.org/2000/svg"
    >
      <path
        d="M10.5638 19.6909C14.3387 19.6909 17.4097 16.62 17.4097 12.8454C17.4097 9.07083 14.3387 6 10.5638 6C6.78879 6 3.71777 9.07083 3.71777 12.8454C3.71777 16.62 6.78879 19.6909 10.5638 19.6909ZM10.5638 8.73839C12.8288 8.73839 14.6713 10.5808 14.6713 12.8454C14.6713 15.1101 12.8288 16.9525 10.5638 16.9525C8.29874 16.9525 6.45616 15.1101 6.45616 12.8454C6.45616 10.5808 8.29874 8.73839 10.5638 8.73839Z"
        fill="#8C8997"
      />
      <path
        d="M19.7251 34.3855C20.7407 33.294 21.2314 31.7961 21.1067 30.1682C20.9886 28.625 20.5328 27.0359 19.7888 25.5723C19.4463 24.8983 18.6215 24.6295 17.9479 24.9722C17.2737 25.3149 17.005 26.1391 17.3478 26.8131C17.7537 27.6115 18.2615 28.8781 18.3764 30.3774C18.5178 32.0011 17.5041 33.2882 15.8581 33.2588L5.27078 33.2617C3.08098 33.39 2.64704 32.1899 2.74635 30.3902C2.79911 29.5362 2.93895 27.2673 4.64917 25.2714C5.21894 24.6065 7.33188 22.4308 10.5495 22.4593C11.5218 22.4655 12.4709 22.6679 13.3704 23.0608C14.0634 23.3633 14.8705 23.0471 15.1732 22.3541C15.4759 21.6613 15.1595 20.854 14.4665 20.5513C13.2052 20.0002 11.8696 19.7205 10.502 19.7207C6.25898 19.7207 3.54322 22.3534 2.56963 23.4898C0.262266 26.1828 0.0747764 29.2227 0.0125236 30.2325C-0.165654 33.9673 1.55588 36.0244 5.27571 36.0003L15.8527 35.9973C17.3829 36.0063 18.7517 35.4318 19.7251 34.3855Z"
        fill="#8C8997"
      />
      <path
        d="M31.5 0C26.8131 0 23 3.81311 23 8.5C23 13.187 26.8131 17 31.5 17C36.1869 17 40 13.1869 40 8.5C40 3.81311 36.1869 0 31.5 0ZM34.5479 9.55131H32.5513V11.5479C32.5513 12.1285 32.0806 12.5992 31.5 12.5992C30.9194 12.5992 30.4486 12.1285 30.4486 11.5479V9.55131H28.4521C27.8715 9.55131 27.4008 9.0806 27.4008 8.5C27.4008 7.91939 27.8715 7.44869 28.4521 7.44869H30.4486V5.45211C30.4486 4.8715 30.9194 4.40079 31.5 4.40079C32.0806 4.40079 32.5513 4.8715 32.5513 5.45211V7.44869H34.5479C35.1285 7.44869 35.5992 7.91939 35.5992 8.5C35.5992 9.0806 35.1285 9.55131 34.5479 9.55131Z"
        fill="#8C8997"
      />
    </svg>