<svg
      width="49"
      height="49"
      viewBox="0 0 49 49"
      fill="none"
      xmlns="http://www.w3.org/2000/svg"
    >
      <g clip-path="url(#clip0_848_21138)">
        <path
          d="M44.5449 22.2729H37.715C37.2773 19.3377 36.0437 12.1968 34.1961 10.3493C32.4909 8.64414 27.349 7.10629 21.3046 5.41633C20.0387 5.06178 18.9359 4.754 18.1529 4.50719C14.8642 3.46756 10.749 0.269084 10.7076 0.236511C10.4009 -0.00382363 9.98546 -0.0668827 9.62444 0.0744781C9.5288 0.111437 0 3.88078 0 14.4776C0 14.8746 0.210997 15.2422 0.55469 15.4411C4.08913 17.49 5.5138 19.8369 6.88847 22.1077C7.58765 23.2588 8.27274 24.3577 9.173 25.3278C9.01608 25.7831 8.90918 26.2477 8.90918 26.7275V44.5455C8.90918 47.0022 10.9081 49 13.3637 49H44.5453C47.0009 49 48.9998 47.0023 48.9998 44.5455V26.7275C48.9995 24.2708 47.0006 22.2729 44.5449 22.2729ZM26.7891 22.2729C24.999 21.3379 23.3143 20.2061 22.5204 19.0919C22.9119 18.7831 23.4165 18.5623 23.8755 18.36C24.1604 18.236 24.4258 18.1197 24.6629 17.9848C25.4284 18.2785 26.4051 18.571 27.0119 18.7439L28.4228 22.2729H26.7891Z"
          fill="#8C8997"
        />
        <path
          d="M46.7728 26.7272V37.8635H11.1367V26.9597C13.7783 28.7297 15.3275 28.8232 16.8136 28.8925C17.1051 28.9066 17.4009 28.9197 17.7119 28.9491C19.5889 29.1286 22.51 30.3933 24.9809 32.0986C26.8971 33.4199 29.3766 34.5119 31.6235 34.5119C33.0004 34.5119 34.2901 34.1019 35.3103 33.0828C36.028 32.365 36.2934 31.4232 36.0758 30.3585C35.6444 28.2342 33.2322 25.8903 31.1924 24.5H44.5455C45.7744 24.5 46.7728 25.4994 46.7728 26.7272Z"
          fill="white"
        />
        <path
          d="M2.24023 13.8556C2.5382 6.53221 8.07372 3.26745 9.87466 2.39746C11.1644 3.34909 14.5228 5.69595 17.483 6.63014C18.2834 6.88353 19.4122 7.19893 20.7042 7.5611C24.6259 8.65837 31.1902 10.4942 32.6213 11.9243C33.6688 12.9727 34.8313 18.2258 35.4592 22.2732H30.8208L28.8737 17.4054C28.7454 17.0791 28.4691 16.8344 28.1298 16.7431C27.4882 16.5702 25.6764 16.0482 24.9978 15.7089C24.5083 15.4641 23.969 15.537 23.6514 15.9938C23.56 16.0677 23.2251 16.2146 22.9814 16.3211C22.1354 16.6931 20.9739 17.2009 20.2322 18.3145C20.0256 18.6234 19.9886 19.016 20.13 19.3586C21.3806 22.371 26.4246 24.6799 28.5366 25.5324C30.2941 26.2425 33.5392 29.0582 33.8938 30.8025C33.9743 31.2017 33.8655 31.3778 33.735 31.5083C32.1385 33.1015 28.7323 31.9813 26.2463 30.2653C23.447 28.3338 20.1801 26.9473 17.9246 26.733C17.5744 26.6993 17.2438 26.683 16.9175 26.6678C15.4624 26.6003 14.3119 26.5471 11.791 24.7135C10.5076 23.7803 9.71377 22.4699 8.79378 20.9528C7.48207 18.7886 5.86383 16.1209 2.24023 13.8556Z"
          fill="white"
        />
        <path
          d="M44.5454 46.7731H13.3639C12.135 46.7731 11.1367 45.7737 11.1367 44.5459H46.7727C46.7727 45.7737 45.7743 46.7731 44.5454 46.7731Z"
          fill="white"
        />
        <path
          d="M35.964 29.9889L35.9609 29.9886C35.9983 30.1119 36.0512 30.2366 36.076 30.3586C36.2934 31.4233 36.0281 32.3651 35.3104 33.0829C34.2903 34.1019 33.0005 34.5119 31.6236 34.5119C29.3768 34.5119 26.8972 33.4201 24.981 32.0987C22.5101 30.3935 19.589 29.1286 17.712 28.9492C17.401 28.9198 17.1051 28.9068 16.8137 28.8926C15.5873 28.8354 14.3076 28.7462 12.4166 27.7274L12.3984 27.7256L22.5364 37.8636H43.8388L35.964 29.9889ZM29.2182 44.5454L31.4454 46.7726H44.5455C45.7744 46.7726 46.7727 45.7732 46.7727 44.5454H29.2182Z"
          fill="url(#paint0_linear_848_21138)"
        />
        <path
          opacity="0.1"
          d="M30.8215 22.2728H35.4599C35.404 21.9125 35.3392 21.5348 35.2753 21.1592H30.376L30.8215 22.2728Z"
          fill="#8C8997"
        />
        <path
          opacity="0.1"
          d="M8.61975 13.7287C10.7078 16.3736 11.6377 18.2638 14.9535 21.6633C17.9554 24.7411 26.0315 26.4997 30.4527 32.1647C29.0519 31.8892 27.5223 31.1703 26.2344 30.2819C23.4351 28.3505 20.1682 26.9639 17.9127 26.7497C17.5647 26.716 17.2331 26.6997 16.9056 26.6845C15.4505 26.617 14.3021 26.5638 11.7801 24.7301C10.499 23.7981 9.70408 22.4877 8.78398 20.9695C7.47133 18.8053 5.85413 16.1376 2.22949 13.8723C2.31688 11.7716 2.86948 10.0363 3.61784 8.55957C5.59261 10.2575 7.38885 12.1696 8.61975 13.7287Z"
          fill="#8C8997"
        />
        <path
          d="M40.9336 35.367H41.8096V36.735C41.7776 36.743 41.7256 36.755 41.6536 36.771C41.5896 36.787 41.5136 36.795 41.4256 36.795C41.2736 36.795 41.1536 36.759 41.0656 36.687C40.9776 36.623 40.9336 36.527 40.9336 36.399V35.367ZM41.8096 28.851H40.9336V27.303C40.9736 27.287 41.0296 27.275 41.1016 27.267C41.1736 27.251 41.2496 27.243 41.3296 27.243C41.4896 27.243 41.6096 27.279 41.6896 27.351C41.7696 27.415 41.8096 27.511 41.8096 27.639V28.851ZM41.3656 35.007C41.9016 35.007 42.3056 34.887 42.5776 34.647C42.8576 34.399 42.9976 34.083 42.9976 33.699C42.9976 33.371 42.8896 33.099 42.6736 32.883C42.4656 32.667 42.1336 32.495 41.6776 32.367L40.6336 32.055C40.2976 31.951 40.0056 31.819 39.7576 31.659C39.5096 31.491 39.3176 31.287 39.1816 31.047C39.0536 30.799 38.9896 30.511 38.9896 30.183C38.9896 29.567 39.2136 29.087 39.6616 28.743C40.1096 28.391 40.7056 28.215 41.4496 28.215C41.8816 28.215 42.2656 28.263 42.6016 28.359C42.9456 28.447 43.2136 28.563 43.4056 28.707C43.6056 28.851 43.7056 29.003 43.7056 29.163C43.7056 29.267 43.6776 29.363 43.6216 29.451C43.5656 29.531 43.4936 29.595 43.4056 29.643C43.2056 29.483 42.9336 29.343 42.5896 29.223C42.2536 29.103 41.8856 29.043 41.4856 29.043C41.0216 29.043 40.6536 29.147 40.3816 29.355C40.1096 29.555 39.9736 29.831 39.9736 30.183C39.9736 30.463 40.0696 30.691 40.2616 30.867C40.4616 31.043 40.7816 31.195 41.2216 31.323L41.9536 31.539C42.5856 31.715 43.0816 31.971 43.4416 32.307C43.8096 32.643 43.9936 33.107 43.9936 33.699C43.9936 34.331 43.7616 34.843 43.2976 35.235C42.8416 35.627 42.1976 35.823 41.3656 35.823C40.8776 35.823 40.4496 35.771 40.0816 35.667C39.7216 35.555 39.4376 35.419 39.2296 35.259C39.0296 35.091 38.9296 34.927 38.9296 34.767C38.9296 34.631 38.9696 34.519 39.0496 34.431C39.1376 34.335 39.2376 34.267 39.3496 34.227C39.5336 34.403 39.7936 34.579 40.1296 34.755C40.4656 34.923 40.8776 35.007 41.3656 35.007Z"
          fill="#8C8997"
        />
      </g>
      <defs>
        <linearGradient
          id="paint0_linear_848_21138"
          x1="17.7223"
          y1="22.4031"
          x2="43.7828"
          y2="48.4592"
          gradientUnits="userSpaceOnUse"
        >
          <stop stop-opacity="0.1" />
          <stop offset="1" stop-opacity="0" />
        </linearGradient>
        <clipPath id="clip0_848_21138">
          <rect width="49" height="49" fill="white" />
        </clipPath>
      </defs>
    </svg>