 <svg
      width="50"
      height="65"
      viewBox="0 0 50 65"
      fill="none"
      xmlns="http://www.w3.org/2000/svg"
    >
      <g clip-path="url(#clip0_848_21125)">
        <path
          d="M44.1181 26.852C44.1101 26.838 44.0961 26.831 44.0881 26.818C44.0571 26.772 44.0211 26.733 43.9791 26.696C43.9651 26.686 43.9561 26.675 43.9431 26.666C43.8761 26.616 43.8021 26.575 43.7181 26.556L23.0681 21.721C22.9601 21.697 22.8421 21.702 22.7321 21.736L8.0021 26.57C7.9601 26.585 7.9271 26.613 7.8901 26.635C7.8661 26.649 7.8371 26.652 7.8161 26.668C7.8101 26.673 7.80711 26.682 7.80111 26.687C7.7951 26.693 7.7851 26.694 7.7791 26.701L0.206105 33.511C-0.0158949 33.713 -0.0648949 34.044 0.0901051 34.299C0.202105 34.486 0.407105 34.602 0.625105 34.602C0.701105 34.602 0.774105 34.588 0.843105 34.563L7.5731 32.055V52.2179C7.5731 52.5039 7.7661 52.7529 8.0441 52.8219L28.0011 57.914C28.0491 57.928 28.1011 57.935 28.1591 57.935C28.2281 57.935 28.2961 57.924 28.3611 57.903L43.2961 52.8089C43.5501 52.7239 43.7201 52.4859 43.7201 52.2179V39.155L49.2201 37.251C49.3971 37.189 49.5351 37.055 49.6011 36.88C49.6671 36.705 49.6521 36.513 49.5581 36.35L44.1181 26.852ZM7.57111 30.718L3.48511 32.242L7.57111 28.565V30.718ZM27.5321 56.505L8.8221 51.7319V27.978L27.5321 32.99V56.505ZM28.1361 31.856L10.3871 27.102L22.9551 22.978L41.3321 27.28L28.1361 31.856ZM42.4681 51.77L28.7821 56.436V33.815L34.3891 41.9039C34.5071 42.0719 34.6991 42.174 34.9041 42.174C34.9691 42.174 35.0381 42.1619 35.1091 42.1399L42.4681 39.59V51.77ZM35.1471 40.7999L29.5281 32.696L43.2911 27.924L48.0961 36.316L35.1471 40.7999Z"
          fill="#6F6B7D"
        />
      </g>
      <path
        d="M27.1964 17.7347L32.7118 12.5128C33.0961 12.1491 33.0961 11.5655 32.7118 11.2017C32.3276 10.8379 31.7112 10.8379 31.327 11.2017L27.4846 14.8396V0.93221C27.4846 0.416842 27.0443 0 26.5 0C25.9557 0 25.5154 0.416842 25.5154 0.93221V14.832L21.673 11.1941C21.2888 10.8303 20.6724 10.8303 20.2882 11.1941C19.9039 11.5579 19.9039 12.1415 20.2882 12.5053L25.8036 17.7272C25.9957 17.9091 26.2438 18 26.5 18C26.7562 18 27.0043 17.9166 27.1964 17.7347Z"
        fill="#6F6B7D"
      />
      <defs>
        <clipPath id="clip0_848_21125">
          <rect
            width="49.641"
            height="49.64"
            fill="white"
            transform="translate(0 15)"
          />
        </clipPath>
      </defs>
    </svg>