 <svg
      width="54"
      height="54"
      viewBox="0 0 54 54"
      fill="none"
      xmlns="http://www.w3.org/2000/svg"
    >
      <g clip-path="url(#clip0_848_21067)">
        <path
          d="M13.6569 0V4.57007H15.233V1.57606H52.1077V48.6939C52.1077 50.5767 50.5763 52.1082 48.6935 52.1082C47.7821 52.1082 46.9249 51.7531 46.2798 51.108C45.6343 50.4625 45.2792 49.6052 45.2792 48.6939V43.7036H15.233V41.9703H13.6569V43.7036H7.35352V48.6939C7.35352 51.4455 9.59227 53.6842 12.3438 53.6842H48.6935C51.445 53.6842 53.6838 51.4455 53.6838 48.6939V0H13.6569ZM12.3438 52.1082C10.461 52.1082 8.92957 50.5767 8.92957 48.6939V45.2797H43.7032V48.6939C43.7032 49.9734 44.182 51.1796 45.0552 52.1082H12.3438Z"
          fill="#6F6B7D"
        />
        <path
          d="M26.7897 26.9471C26.7897 20.5527 22.2856 15.1913 16.284 13.8668V11.9762H18.3851V6.19824H8.40454V11.9762H10.5057V13.8668C4.50372 15.1913 0 20.5527 0 26.9471C0 34.333 6.00892 40.3415 13.3948 40.3415C20.7808 40.3415 26.7897 34.333 26.7897 26.9471ZM9.9806 10.4005V7.77389H16.8091V10.4005H9.9806ZM14.7079 11.9762V13.6165C14.6969 13.6153 14.6862 13.6145 14.6752 13.6137C14.5785 13.6042 14.4819 13.5956 14.3844 13.5887C14.3684 13.5874 14.3524 13.5866 14.3361 13.5854C14.2431 13.5792 14.1505 13.5731 14.0571 13.5686C14.0219 13.5666 13.9867 13.5657 13.9515 13.5645C13.8769 13.5612 13.8028 13.558 13.7286 13.5563C13.6172 13.5534 13.5058 13.5522 13.3948 13.5522C13.2834 13.5522 13.1724 13.5534 13.061 13.5563C12.9865 13.5584 12.9124 13.5612 12.8382 13.5645C12.803 13.5657 12.7678 13.567 12.7326 13.5686C12.6392 13.5731 12.5462 13.5792 12.4536 13.5854C12.4372 13.5866 12.4213 13.5874 12.4049 13.5887C12.3078 13.5956 12.2112 13.6042 12.1145 13.6137C12.1034 13.6145 12.0924 13.6153 12.0817 13.6165V11.9762H14.7079ZM1.57606 26.9471C1.57606 21.086 5.86434 16.2087 11.4682 15.286C11.777 15.2352 12.0879 15.1963 12.4 15.17C12.4033 15.17 12.4061 15.1696 12.409 15.1692C12.5704 15.1561 12.7321 15.1463 12.8943 15.1393C12.8988 15.1389 12.9033 15.1389 12.9079 15.1389C13.2322 15.1254 13.5574 15.1254 13.8822 15.1389C13.8867 15.1389 13.8912 15.1389 13.8958 15.1393C14.0575 15.1459 14.2193 15.1561 14.3807 15.1692C14.384 15.1696 14.3868 15.17 14.3897 15.17C14.7018 15.1963 15.0127 15.2352 15.3219 15.286C20.9253 16.2087 25.2136 21.086 25.2136 26.9471C25.2136 33.4639 19.9116 38.7658 13.3948 38.7658C6.87804 38.7658 1.57606 33.4639 1.57606 26.9471Z"
          fill="#6F6B7D"
        />
        <path
          d="M23.6376 26.9472C23.6376 21.2987 19.0426 16.7041 13.3945 16.7041C7.74642 16.7041 3.15137 21.2987 3.15137 26.9472C3.15137 32.5953 7.74642 37.19 13.3945 37.19C19.0426 37.19 23.6376 32.5953 23.6376 26.9472ZM4.72742 26.9472C4.72742 22.1679 8.61555 18.2797 13.3945 18.2797C18.1735 18.2797 22.0616 22.1679 22.0616 26.9472C22.0616 31.7262 18.1735 35.6143 13.3945 35.6143C8.61555 35.6143 4.72742 31.7262 4.72742 26.9472Z"
          fill="#6F6B7D"
        />
        <path
          d="M16.8407 29.3836L14.1825 26.7254V22.8496H12.6064V27.3783L15.7262 30.4981L16.8407 29.3836Z"
          fill="#6F6B7D"
        />
        <path
          d="M49.4815 4.20215H24.793V15.2333H49.4815V4.20215ZM47.9055 13.6573H26.369V5.7782H47.9055V13.6573Z"
          fill="#6F6B7D"
        />
        <path
          d="M32.6731 7.35352H27.9453V12.0813H32.6731V7.35352ZM31.097 10.5052H29.5214V8.92957H31.097V10.5052Z"
          fill="#6F6B7D"
        />
        <path
          d="M49.4824 17.8594H28.9961V24.6883H49.4824V17.8594ZM47.9063 23.1122H30.5721V19.4354H47.9063V23.1122Z"
          fill="#6F6B7D"
        />
        <path
          d="M38.4512 27.3145H28.9961V34.1433H38.4512V27.3145ZM36.8756 32.5673H30.5721V28.8905H36.8756V32.5673Z"
          fill="#6F6B7D"
        />
        <path
          d="M49.4815 27.3145H40.0264V34.1433H49.4815V27.3145ZM47.9054 32.5673H41.602V28.8905H47.9054V32.5673Z"
          fill="#6F6B7D"
        />
        <path
          d="M14.4453 46.8555H19.6982V48.4315H14.4453V46.8555Z"
          fill="#6F6B7D"
        />
        <path
          d="M11.2939 46.8555H12.8696V48.4315H11.2939V46.8555Z"
          fill="#6F6B7D"
        />
        <path
          d="M12.6064 19.8555H14.1825V21.4311H12.6064V19.8555Z"
          fill="#6F6B7D"
        />
        <path
          d="M12.6064 32.4629H14.1825V34.0385H12.6064V32.4629Z"
          fill="#6F6B7D"
        />
        <path
          d="M6.30371 26.1592H7.87977V27.7348H6.30371V26.1592Z"
          fill="#6F6B7D"
        />
        <path
          d="M18.9102 26.1592H20.4862V27.7348H18.9102V26.1592Z"
          fill="#6F6B7D"
        />
        <path
          d="M43.2314 7.35352H46.2783V8.92957H43.2314V7.35352Z"
          fill="#6F6B7D"
        />
        <path
          d="M34.3018 7.35352H41.6557V8.92957H34.3018V7.35352Z"
          fill="#6F6B7D"
        />
        <path
          d="M40.499 10.5059H42.0751V12.0819H40.499V10.5059Z"
          fill="#6F6B7D"
        />
        <path
          d="M34.3018 10.5059H38.9243V12.0819H34.3018V10.5059Z"
          fill="#6F6B7D"
        />
        <path
          d="M28.9961 35.7197H38.4512V37.2958H28.9961V35.7197Z"
          fill="#6F6B7D"
        />
        <path
          d="M40.0264 35.7197H49.4815V37.2958H40.0264V35.7197Z"
          fill="#6F6B7D"
        />
        <path
          d="M28.9961 38.8711H33.1459V40.4471H28.9961V38.8711Z"
          fill="#6F6B7D"
        />
        <path
          d="M34.7217 38.8711H36.2973V40.4471H34.7217V38.8711Z"
          fill="#6F6B7D"
        />
        <path
          d="M45.752 38.8711H47.328V40.4471H45.752V38.8711Z"
          fill="#6F6B7D"
        />
        <path
          d="M40.0264 38.8711H44.1762V40.4471H40.0264V38.8711Z"
          fill="#6F6B7D"
        />
      </g>
      <defs>
        <clipPath id="clip0_848_21067">
          <rect width="53.6842" height="53.6842" fill="white" />
        </clipPath>
      </defs>
    </svg>