<svg width="26" height="18" viewBox="0 0 26 18" fill="none" xmlns="http://www.w3.org/2000/svg">
<path d="M25.1834 8.6872C22.8297 4.09475 18.17 0.987549 12.8344 0.987549C7.49895 0.987549 2.83792 4.09692 0.485491 8.68764C0.386203 8.88404 0.334473 9.10103 0.334473 9.3211C0.334473 9.54117 0.386203 9.75816 0.485491 9.95456C2.83922 14.547 7.49895 17.6542 12.8344 17.6542C18.17 17.6542 22.831 14.5448 25.1834 9.95413C25.2827 9.75773 25.3344 9.54074 25.3344 9.32066C25.3344 9.10059 25.2827 8.8836 25.1834 8.6872ZM12.8344 15.5709C11.5983 15.5709 10.3899 15.2043 9.36213 14.5176C8.33433 13.8308 7.53325 12.8547 7.0602 11.7127C6.58715 10.5706 6.46338 9.31395 6.70454 8.10157C6.9457 6.88919 7.54095 5.77554 8.41503 4.90146C9.28911 4.02739 10.4028 3.43213 11.6151 3.19097C12.8275 2.94982 14.0842 3.07359 15.2262 3.54664C16.3683 4.01968 17.3444 4.82076 18.0311 5.84857C18.7179 6.87637 19.0844 8.08475 19.0844 9.32088C19.0848 10.1418 18.9235 10.9547 18.6095 11.7131C18.2956 12.4716 17.8352 13.1607 17.2548 13.7412C16.6743 14.3216 15.9852 14.782 15.2267 15.0959C14.4682 15.4099 13.6553 15.5713 12.8344 15.5709ZM12.8344 5.15422C12.4625 5.15941 12.093 5.21474 11.7359 5.31871C12.0303 5.71874 12.1715 6.21102 12.1341 6.70627C12.0966 7.20153 11.8829 7.66695 11.5317 8.01815C11.1805 8.36934 10.7151 8.58305 10.2198 8.62052C9.72459 8.65798 9.23231 8.51672 8.83228 8.22236C8.60449 9.06159 8.64561 9.95112 8.94985 10.7658C9.25409 11.5804 9.80614 12.2791 10.5283 12.7636C11.2504 13.248 12.1063 13.4938 12.9755 13.4664C13.8447 13.4389 14.6833 13.1396 15.3735 12.6105C16.0636 12.0814 16.5704 11.3493 16.8227 10.5171C17.0749 9.68484 17.0598 8.79448 16.7795 7.9713C16.4991 7.14812 15.9678 6.43357 15.2601 5.92822C14.5524 5.42287 13.704 5.15217 12.8344 5.15422Z" fill="#9095A5"/>
</svg>
