<svg width="30" height="33" viewBox="0 0 30 33" fill="none" xmlns="http://www.w3.org/2000/svg">
<path d="M4.79399 20.3672C6.91579 20.3672 8.63584 18.6358 8.63584 16.5C8.63584 14.3642 6.91579 12.6328 4.79399 12.6328C2.6722 12.6328 0.952148 14.3642 0.952148 16.5C0.952148 18.6358 2.6722 20.3672 4.79399 20.3672Z" stroke="#9095A5" stroke-width="1.5" stroke-linecap="round" stroke-linejoin="round"/>
<path d="M25.2837 8.76562C27.4055 8.76562 29.1256 7.03423 29.1256 4.89844C29.1256 2.76265 27.4055 1.03125 25.2837 1.03125C23.1619 1.03125 21.4419 2.76265 21.4419 4.89844C21.4419 7.03423 23.1619 8.76562 25.2837 8.76562Z" stroke="#9095A5" stroke-width="1.5" stroke-linecap="round" stroke-linejoin="round"/>
<path d="M25.2837 31.9688C27.4055 31.9688 29.1256 30.2374 29.1256 28.1016C29.1256 25.9658 27.4055 24.2344 25.2837 24.2344C23.1619 24.2344 21.4419 25.9658 21.4419 28.1016C21.4419 30.2374 23.1619 31.9688 25.2837 31.9688Z" stroke="#9095A5" stroke-width="1.5" stroke-linecap="round" stroke-linejoin="round"/>
<path d="M8.14209 18.3958L21.9359 26.2059M21.9359 6.79425L8.14209 14.6044" stroke="#9095A5" stroke-width="1.5" stroke-linecap="round" stroke-linejoin="round"/>
</svg>
